<?xml version="1.0" standalone="no"?>
<!DOCTYPE svg PUBLIC "-//W3C//DTD SVG 20010904//EN"
 "http://www.w3.org/TR/2001/REC-SVG-20010904/DTD/svg10.dtd">
<svg version="1.0" xmlns="http://www.w3.org/2000/svg"
 width="300.000000pt" height="177.000000pt" viewBox="0 0 300.000000 177.000000"
 preserveAspectRatio="xMidYMid meet">
<metadata>
Created by potrace 1.10, written by Peter Selinger 2001-2011
</metadata>
<g transform="translate(0.000000,177.000000) scale(0.100000,-0.100000)"
fill="#000000" stroke="none">
<path d="M164 1758 c26 -10 75 -46 97 -73 54 -65 58 -69 59 -54 0 24 -134 139
-162 138 -21 -1 -20 -2 6 -11z"/>
<path d="M245 1760 c11 -4 42 -33 69 -64 26 -31 52 -56 58 -56 20 0 -107 128
-127 128 -20 1 -20 1 0 -8z"/>
<path d="M344 1733 c19 -21 50 -56 69 -78 20 -22 38 -38 40 -35 8 8 -116 148
-131 149 -7 1 3 -16 22 -36z"/>
<path d="M407 1739 c17 -19 45 -48 61 -66 17 -18 35 -40 41 -50 6 -10 11 -13
11 -5 0 17 -110 146 -129 151 -10 2 -3 -10 16 -30z"/>
<path d="M484 1736 c17 -19 32 -33 34 -31 8 7 -39 65 -52 65 -7 0 1 -16 18
-34z"/>
<path d="M605 1760 c11 -4 27 -18 35 -30 35 -53 47 -63 54 -51 5 7 2 10 -6 9
-7 -2 -12 5 -12 14 1 10 -2 15 -7 12 -8 -5 -13 10 -10 29 1 5 -3 6 -8 3 -5 -3
-11 1 -15 9 -3 8 -16 15 -28 14 -22 0 -22 -1 -3 -9z"/>
<path d="M703 1737 c15 -19 27 -40 27 -44 0 -5 13 -24 29 -43 21 -25 28 -29
25 -15 -8 30 -77 128 -94 133 -9 3 -4 -9 13 -31z"/>
<path d="M750 1761 c0 -5 7 -11 15 -15 8 -3 15 -12 15 -21 0 -8 5 -15 10 -15
6 0 10 -5 10 -11 0 -5 11 -27 26 -47 25 -37 25 -37 18 -7 -4 17 -10 32 -14 35
-4 3 -19 24 -34 48 -24 39 -46 55 -46 33z"/>
<path d="M849 1730 c15 -21 34 -53 41 -69 7 -17 16 -28 21 -25 7 4 -6 39 -21
54 -3 3 -14 22 -24 43 -11 20 -25 37 -33 37 -8 0 -3 -14 16 -40z"/>
<path d="M906 1759 c7 -8 31 -50 54 -94 42 -80 61 -108 59 -89 -1 22 -95 188
-109 192 -12 4 -13 2 -4 -9z"/>
<path d="M1016 1693 c20 -43 38 -86 41 -95 3 -10 9 -18 14 -18 4 0 1 17 -8 38
-8 20 -20 48 -26 62 -6 14 -11 27 -12 30 -7 22 -30 60 -36 60 -5 0 8 -35 27
-77z"/>
<path d="M1128 1761 c8 -4 14 -11 14 -14 0 -21 12 -46 19 -41 12 7 -18 64 -34
64 -9 0 -8 -3 1 -9z"/>
<path d="M1430 1725 c9 -62 21 -69 18 -10 -2 27 -8 50 -14 52 -7 3 -9 -11 -4
-42z"/>
<path d="M1587 1723 c-4 -27 -12 -103 -18 -169 l-12 -122 -49 -21 c-29 -13
-58 -19 -72 -15 -13 3 -27 1 -30 -4 -4 -6 3 -8 16 -5 22 4 23 4 4 -11 -16 -13
-17 -19 -8 -28 9 -9 12 -8 12 8 1 19 1 19 17 -1 13 -16 15 -17 10 -2 -5 12 -1
17 13 18 67 4 65 5 62 -26 l-2 -30 13 30 c13 28 17 30 65 27 49 -4 51 -5 55
-35 4 -30 4 -30 5 6 2 44 22 50 22 6 0 -18 4 -28 10 -24 6 4 8 10 5 15 -3 5
-1 11 5 15 5 3 10 -2 10 -12 1 -14 4 -13 15 7 l14 25 1 -25 1 -25 13 25 14 24
4 -24 5 -25 11 25 11 25 0 -29 c1 -32 16 -26 23 9 2 11 11 19 19 17 9 -1 7 3
-5 12 -14 11 -24 12 -37 5 -12 -6 -25 -6 -37 0 -12 6 -23 5 -36 -5 -17 -12
-21 -11 -31 3 -11 15 -15 15 -29 4 -14 -12 -19 -11 -36 4 -16 14 -22 15 -35 5
-16 -13 -45 -7 -45 9 0 6 12 13 28 17 60 14 253 76 249 80 -5 6 -223 -54 -249
-67 -22 -12 -22 -10 1 184 10 81 14 147 11 147 -4 0 -10 -21 -13 -47z"/>
<path d="M1656 1755 c-11 -31 -7 -65 8 -59 10 4 12 16 9 37 -6 39 -9 43 -17
22z"/>
<path d="M1870 1737 c0 -18 -5 -38 -12 -45 -6 -6 -9 -15 -5 -19 4 -4 13 -1 19
5 15 15 22 92 8 92 -5 0 -10 -15 -10 -33z"/>
<path d="M1936 1748 c-8 -33 -7 -50 3 -44 11 7 20 66 10 66 -3 0 -9 -10 -13
-22z"/>
<path d="M1970 1698 c-12 -40 -23 -79 -25 -85 -3 -7 -1 -13 3 -13 8 0 53 162
47 168 -2 2 -13 -29 -25 -70z"/>
<path d="M2086 1758 c-6 -20 -26 -106 -26 -113 0 -3 6 0 14 7 7 7 12 18 9 24
-2 7 0 15 6 19 6 3 11 19 11 35 0 15 6 31 13 33 7 3 5 6 -6 6 -10 1 -19 -5
-21 -11z"/>
<path d="M2155 1733 c-20 -48 -30 -90 -19 -80 5 5 9 12 9 15 1 4 11 26 23 49
25 48 26 53 12 53 -5 0 -17 -17 -25 -37z"/>
<path d="M2710 1725 c0 -13 -11 -19 -32 -17 -3 1 -11 -4 -17 -12 -8 -10 -4
-12 19 -8 17 2 30 8 30 12 0 5 7 16 16 24 14 15 14 16 0 16 -9 0 -16 -7 -16
-15z"/>
<path d="M1088 1699 c5 -34 27 -56 38 -38 5 8 3 9 -6 4 -9 -6 -10 -1 -5 16 5
19 4 21 -5 9 -9 -12 -11 -10 -6 11 4 17 1 26 -7 26 -9 0 -12 -10 -9 -28z"/>
<path d="M2390 1671 c-35 -10 -10 -22 30 -15 22 5 28 9 18 15 -15 10 -13 10
-48 0z"/>
<path d="M2412 1643 c-35 -8 -62 -17 -60 -19 3 -2 42 5 89 15 46 11 73 19 59
19 -14 0 -53 -7 -88 -15z"/>
<path d="M2287 1644 c-3 -4 -19 -8 -34 -9 -15 -2 -37 -6 -47 -11 -15 -6 -17
-4 -11 6 5 8 -5 4 -21 -7 -17 -12 -43 -24 -60 -28 l-29 -6 28 16 c15 9 27 17
27 19 0 9 -215 -84 -218 -94 -3 -8 0 -10 8 -5 6 4 44 14 83 22 40 8 78 19 84
25 7 6 20 8 28 4 8 -3 15 -2 15 3 0 14 87 32 117 25 17 -5 24 -3 19 4 -4 7 5
10 26 8 18 -2 24 -1 13 2 -16 4 -12 8 20 18 l40 12 -41 1 c-22 1 -43 -2 -47
-5z"/>
<path d="M2928 1588 c-27 -23 -52 -32 -95 -38 -56 -7 -55 -8 27 -7 47 0 77 2
67 5 -14 3 -7 11 28 34 25 16 45 32 45 34 0 14 -41 -2 -72 -28z"/>
<path d="M855 1599 c-5 -8 -4 -10 3 -5 7 4 12 3 12 -3 0 -19 -20 -22 -44 -6
-16 11 -26 12 -31 6 -7 -12 -32 -10 -52 2 -8 5 -13 3 -13 -4 0 -7 -8 -9 -22
-5 -44 13 -58 15 -57 8 3 -19 -2 -26 -10 -13 -6 10 -13 10 -28 3 -14 -8 -23
-8 -30 -1 -8 8 -18 7 -33 -1 -17 -9 -29 -9 -46 -1 -19 8 -24 8 -24 -3 0 -8 -6
-16 -12 -19 -7 -2 38 -3 99 -2 62 1 116 5 120 8 3 4 12 2 19 -4 9 -7 18 -6 33
3 16 10 23 10 32 1 9 -9 18 -9 31 -2 14 7 23 7 34 -2 11 -9 17 -9 29 1 12 10
18 10 30 0 25 -20 17 5 -9 29 -18 17 -26 19 -31 10z"/>
<path d="M2308 1579 c13 -5 21 -13 18 -18 -7 -11 60 -20 75 -10 9 5 -32 21
-63 23 -3 1 -10 4 -14 9 -4 4 -14 7 -23 6 -10 0 -7 -4 7 -10z"/>
<path d="M2215 1554 l-30 -26 35 20 c19 11 42 22 50 25 11 4 9 6 -5 6 -11 1
-33 -11 -50 -25z"/>
<path d="M1873 1535 c-15 -13 -23 -25 -16 -25 6 0 15 5 18 10 3 6 11 10 16 10
6 0 1 -12 -9 -28 -26 -36 -32 -67 -12 -67 10 0 14 8 12 24 -1 14 2 27 8 31 5
3 11 15 13 25 1 11 6 26 10 33 14 21 -10 13 -40 -13z"/>
<path d="M28 1543 c18 -2 45 -2 60 0 15 2 0 4 -33 4 -33 0 -45 -2 -27 -4z"/>
<path d="M470 1528 c-19 -5 -53 -8 -74 -5 -26 4 -35 2 -25 -4 7 -5 37 -9 65
-9 28 0 64 -4 80 -9 40 -13 233 -24 215 -12 -16 10 -6 31 15 31 8 0 14 5 14
10 0 12 -27 13 -32 1 -2 -4 -38 -6 -80 -2 -80 7 -101 5 -93 -9 3 -4 -4 -6 -15
-3 -11 3 -20 9 -20 14 0 11 -4 10 -50 -3z"/>
<path d="M235 1524 c48 -8 115 -9 115 -2 0 5 -30 7 -67 7 -38 -1 -59 -3 -48
-5z"/>
<path d="M2221 1513 c-1 -17 5 -23 21 -23 12 0 19 -3 15 -6 -3 -3 -50 -8 -104
-10 -112 -4 -242 -19 -251 -29 -4 -4 29 -5 73 -1 44 4 121 9 170 12 50 2 108
7 130 10 22 3 76 7 120 9 44 1 96 5 115 8 19 3 68 11 109 17 41 6 81 15 90 21
13 8 10 9 -10 5 -40 -9 -298 -46 -316 -46 -11 0 -9 5 8 21 22 18 22 20 4 15
-11 -3 -52 -8 -92 -12 -64 -6 -72 -5 -76 12 -4 16 -5 15 -6 -3z"/>
<path d="M481 1471 c-11 -7 -9 -11 9 -21 12 -6 24 -9 27 -6 3 3 -3 9 -13 13
-17 6 -17 8 6 14 20 6 21 7 5 8 -11 0 -26 -3 -34 -8z"/>
<path d="M228 1442 c-57 -15 -94 -30 -91 -35 4 -6 -1 -8 -10 -4 -10 4 -17 1
-17 -6 0 -8 -3 -8 -9 2 -5 8 -19 12 -35 9 -14 -3 -27 0 -29 5 -5 15 -37 0 -37
-17 0 -18 26 -22 142 -21 l96 1 4 -28 c3 -15 1 -25 -3 -23 -4 3 -9 -8 -11 -25
-3 -19 0 -31 10 -35 10 -4 13 -16 10 -41 l-4 -35 17 23 c10 12 21 19 25 15 4
-4 2 -7 -4 -7 -7 0 -12 -9 -12 -20 0 -11 -7 -20 -15 -20 -8 0 -15 -4 -15 -10
0 -5 13 -10 29 -10 28 0 30 -2 29 -40 0 -37 -2 -40 -29 -40 -26 0 -29 4 -30
33 l-2 32 -4 -30 c-3 -17 1 -33 9 -40 16 -12 40 -64 34 -73 -2 -4 12 -6 32 -5
21 1 78 4 127 6 l90 3 -3 -42 c-3 -35 -7 -41 -20 -36 -10 3 -23 12 -30 19 -11
11 -11 13 0 14 7 1 16 1 21 0 4 0 7 3 7 9 0 15 -227 13 -236 -2 -13 -21 -14
-62 -1 -70 9 -6 9 -12 -1 -29 -9 -13 -12 -48 -11 -95 1 -41 -1 -77 -4 -81 -4
-3 -7 -53 -7 -111 0 -86 2 -103 13 -93 8 6 16 8 19 5 3 -2 8 2 11 10 3 8 -1
17 -9 20 -19 7 -18 35 2 43 11 4 12 8 4 13 -6 4 -12 28 -14 53 -2 38 1 48 16
53 10 3 18 12 18 20 0 11 4 13 16 6 9 -5 25 -7 35 -5 13 4 19 0 19 -12 0 -12
5 -15 16 -11 9 3 24 6 35 6 10 0 19 4 19 8 0 5 -13 7 -30 4 -18 -3 -30 0 -30
7 0 6 16 11 35 11 19 0 35 -5 35 -11 0 -5 4 -8 10 -4 5 3 7 12 3 20 -3 9 1 15
10 15 9 0 18 -10 20 -22 3 -14 5 -8 6 15 0 21 6 48 12 59 6 12 13 51 16 87 2
36 8 93 13 125 5 32 7 62 5 67 -3 4 0 11 7 15 17 11 -19 22 -51 15 l-26 -5 24
-6 c19 -4 26 -14 28 -38 l4 -32 -90 0 c-49 0 -92 4 -95 9 -6 10 26 21 62 21
15 0 21 4 16 12 -5 8 -1 9 12 4 13 -5 16 -4 9 3 -7 7 -31 4 -75 -9 -72 -22
-128 -27 -72 -6 18 6 30 15 25 19 -4 5 -1 5 8 2 8 -3 33 1 56 9 23 8 44 12 47
9 3 -4 6 -1 6 6 0 7 4 9 10 6 5 -3 34 1 63 10 l55 16 6 52 c4 29 7 62 7 73 -1
37 52 65 71 39 5 -7 8 -6 8 0 0 6 -19 29 -42 50 -31 29 -35 31 -14 8 17 -18
26 -33 20 -34 -39 -5 -72 -4 -69 2 3 3 -8 17 -23 30 l-27 24 23 -26 22 -26
-25 -13 c-14 -7 -28 -10 -32 -7 -3 4 0 7 9 7 21 0 18 27 -5 47 -11 10 -17 12
-13 5 8 -14 -19 -12 -44 3 -12 7 -13 6 -3 -6 11 -13 13 -20 13 -35 0 -4 6 -2
13 3 15 13 48 13 41 1 -4 -5 -12 -7 -20 -4 -7 3 -16 1 -20 -5 -3 -5 -18 -9
-32 -7 -15 2 -29 -1 -32 -7 -3 -6 17 -12 47 -15 39 -4 60 -13 82 -34 25 -24
28 -33 24 -69 -3 -23 -7 -44 -9 -46 -2 -2 -33 16 -71 39 -37 24 -74 44 -83 45
-25 3 -50 17 -45 25 3 5 -11 4 -30 -1 -19 -6 -39 -8 -43 -5 -4 2 -6 33 -4 69
l4 66 36 -1 c20 -1 42 0 47 2 22 6 56 -1 50 -9 -3 -5 -1 -13 5 -16 6 -4 9 -1
8 7 -2 9 13 13 57 14 33 1 62 3 65 4 21 11 82 4 93 -9 11 -14 10 -15 -8 -1
-11 8 -4 -4 15 -27 19 -23 39 -42 44 -42 5 -1 -1 10 -14 24 -15 16 -19 25 -10
25 9 0 5 9 -10 25 -13 14 -19 25 -14 24 5 0 23 -17 39 -37 17 -20 24 -32 17
-28 -11 7 -11 4 -1 -12 8 -13 23 -19 45 -19 l34 1 -22 23 c-26 28 -38 31 -13
3 10 -11 14 -20 8 -20 -9 0 -73 73 -73 84 0 3 32 6 71 6 38 0 68 -4 65 -8 -3
-5 11 -24 32 -43 20 -19 29 -25 19 -13 -28 34 -19 40 15 8 18 -16 25 -20 15
-8 -26 32 -20 40 10 13 l27 -24 -23 33 c-34 49 -20 48 17 0 18 -23 32 -37 32
-31 0 6 -9 22 -21 37 l-20 26 42 0 c48 0 44 15 -4 16 -18 0 -38 2 -46 5 -8 2
-20 -7 -28 -21 -13 -25 -15 -23 -17 15 -1 12 -7 19 -16 16 -16 -3 -83 -6 -390
-16 -102 -3 -209 -7 -238 -8 -30 -1 -56 1 -58 5 -7 10 104 42 148 42 20 0 32
4 26 7 -7 4 -1 9 13 12 18 3 19 4 4 5 -11 0 -64 -11 -117 -26z m338 -168 c-5
-14 -9 -14 -22 -3 -14 12 -14 14 2 26 21 15 30 3 20 -23z m-210 -89 c10 -8 29
-15 42 -15 12 0 22 -4 22 -8 0 -4 10 -8 23 -9 16 -1 12 4 -15 16 -55 26 -60
36 -8 15 25 -9 53 -26 63 -36 20 -20 24 -19 -70 -21 -21 0 -41 -6 -45 -11 -5
-7 -8 -6 -8 2 0 7 -4 11 -9 8 -5 -4 -16 -3 -25 0 -14 5 -14 9 -4 23 7 9 8 13
4 9 -5 -4 -15 0 -22 10 -10 14 -10 18 4 24 25 10 26 9 48 -7z m101 -244 c15
-9 14 -11 -12 -12 -16 -1 -34 -1 -39 0 -4 1 -15 -4 -24 -11 -9 -7 -13 -8 -9
-2 4 7 -7 10 -31 9 -20 -1 -43 0 -49 3 -19 6 -16 20 5 24 31 7 141 -1 159 -11z
m43 -46 c0 -19 -5 -25 -23 -25 -12 0 -28 9 -34 19 -11 18 -9 20 15 24 15 2 30
5 35 6 4 0 7 -10 7 -24z m-140 -11 c0 -8 -3 -14 -7 -15 -62 -6 -82 -1 -69 20
10 15 76 11 76 -5z m65 2 c18 -13 18 -14 -4 -21 -25 -8 -47 7 -37 24 9 14 18
14 41 -3z m-100 -46 c-3 -5 -1 -10 4 -10 6 0 11 5 11 10 0 6 5 10 10 10 6 0 8
-11 4 -25 -4 -15 -2 -25 5 -25 6 0 11 -10 10 -22 0 -22 -1 -22 -9 -3 -7 17 -9
17 -9 3 -1 -21 -51 -26 -51 -5 0 8 -4 7 -10 -3 -7 -11 -10 -5 -10 23 0 26 4
37 15 37 8 0 15 5 15 10 0 6 5 10 11 10 5 0 7 -4 4 -10z m115 -24 c0 -28 -20
-66 -34 -66 -9 0 -14 13 -14 40 -1 36 2 40 24 40 14 0 24 -6 24 -14z m32 -6
c5 25 5 25 7 -3 0 -17 -5 -30 -14 -34 -22 -8 -24 -3 -17 32 6 30 6 30 12 5 l7
-25 5 25z"/>
<path d="M1205 1450 c-27 -7 -26 -8 15 -9 25 0 52 4 60 9 11 7 8 9 -15 9 -16
-1 -43 -5 -60 -9z"/>
<path d="M2840 1450 c-8 -6 -27 -7 -42 -4 -14 3 -29 0 -33 -5 -3 -6 -17 -8
-31 -5 -13 3 -31 1 -39 -6 -10 -8 -19 -9 -32 -1 -13 7 -23 5 -35 -6 -15 -13
-20 -14 -33 -3 -14 11 -19 10 -37 -8 -20 -20 -22 -20 -35 -4 -12 16 -16 14
-48 -22 -41 -46 -39 -61 2 -19 15 16 25 24 21 19 -16 -21 -7 -28 12 -11 11 10
20 14 20 10 0 -5 5 -4 12 3 22 22 32 12 11 -10 -20 -23 -43 -59 -28 -46 20 19
43 -13 50 -69 3 -32 9 -68 12 -79 5 -22 -6 -27 -112 -59 -15 -4 -5 82 10 95
11 9 14 7 13 -12 -1 -13 -6 -30 -12 -38 -7 -10 -4 -9 10 3 11 9 26 17 32 17 6
0 14 5 18 12 4 7 3 8 -4 4 -18 -11 -14 4 5 28 10 12 2 8 -17 -9 -33 -29 -29
-18 15 35 l20 25 -27 -24 c-16 -14 -28 -21 -28 -16 0 5 12 23 28 39 l27 31
-32 -29 c-38 -34 -44 -25 -11 13 19 21 17 20 -10 -3 -17 -17 -32 -25 -32 -19
0 6 7 16 15 23 8 7 15 16 15 21 0 14 -26 10 -40 -6 -7 -8 -16 -12 -21 -9 -5 3
-18 -5 -29 -18 -11 -13 -19 -18 -20 -13 0 6 6 17 13 25 10 12 9 12 -5 1 -15
-11 -18 -11 -18 0 0 8 -11 1 -25 -16 -13 -16 -24 -25 -25 -18 0 6 5 15 10 18
6 3 10 12 10 18 0 7 -11 -1 -25 -18 -21 -26 -38 -25 -17 1 4 5 -3 -2 -15 -16
-24 -26 -30 -22 -14 9 7 13 5 17 -7 18 -10 1 -29 -18 -46 -48 -38 -62 -47 -56
-11 8 15 26 21 41 13 33 -25 -24 -75 -117 -55 -101 14 11 17 11 17 0 1 -8 12
5 27 29 26 44 44 52 23 10 -11 -22 -11 -22 10 2 16 18 20 20 16 7 -4 -12 -2
-16 5 -11 7 4 10 1 7 -7 -3 -8 -11 -14 -19 -14 -8 -1 -13 -6 -12 -12 2 -7 -6
-15 -17 -18 -11 -4 -17 -12 -13 -20 3 -8 9 -12 14 -9 5 3 9 -2 9 -11 0 -15 -4
-14 -36 4 -33 20 -75 31 -46 12 12 -7 11 -14 -2 -39 -9 -17 -16 -37 -15 -44 0
-7 9 6 19 29 14 31 23 41 34 37 12 -5 13 -11 6 -24 -6 -10 -10 -25 -10 -32 1
-7 8 0 16 15 9 16 18 27 21 24 2 -3 0 -14 -6 -25 -15 -28 -15 -28 24 -24 29 4
34 1 29 -12 -4 -11 -13 -14 -28 -10 -22 5 -55 12 -68 13 -3 1 -4 11 -1 24 4
20 3 20 -7 4 -9 -15 -8 -22 5 -37 9 -10 24 -16 33 -13 10 2 28 0 42 -6 22 -9
21 -10 -13 -7 -34 3 -42 -1 -72 -37 -34 -39 -35 -40 -35 -15 0 17 9 32 26 43
20 13 23 19 14 25 -8 5 -23 2 -37 -7 -21 -14 -23 -14 -23 5 0 11 4 22 9 24 4
2 11 14 15 28 6 23 6 23 -9 -3 -12 -21 -22 -27 -36 -24 -19 5 -28 -8 -10 -15
13 -5 23 -101 12 -118 -6 -8 -13 -11 -18 -7 -4 5 -2 11 4 15 7 4 11 17 10 29
-1 17 -4 19 -14 11 -10 -8 -13 -1 -13 36 0 25 -4 46 -9 46 -5 0 -12 8 -14 18
-4 16 -5 16 -6 0 0 -10 -5 -18 -10 -18 -5 0 -7 10 -5 23 4 16 1 14 -10 -8 -8
-16 -15 -23 -15 -15 -1 13 -2 13 -11 0 -8 -12 -10 -12 -10 5 0 17 -2 18 -11 5
-7 -11 -9 -3 -5 30 l5 45 -12 -45 c-7 -25 -17 -43 -21 -42 -5 2 -12 -1 -16 -8
-4 -6 -16 -12 -28 -13 -29 -2 -19 -13 38 -42 62 -31 63 -31 31 4 -15 17 -30
26 -36 21 -6 -5 -17 -5 -24 -1 -17 11 26 22 57 16 35 -6 82 -45 82 -66 0 -11
5 -17 10 -14 6 3 10 -3 10 -13 0 -11 -9 -22 -20 -25 -13 -3 -20 0 -20 9 0 7
-18 23 -40 34 -47 24 -57 25 -40 5 7 -9 10 -18 6 -22 -3 -3 -6 -1 -6 5 0 6
-10 17 -22 23 -18 10 -24 8 -35 -7 -7 -10 -13 -13 -13 -7 0 6 -10 14 -22 18
-21 7 -20 8 11 12 32 4 33 5 13 19 -13 9 -19 22 -16 36 4 22 4 22 -5 2 -7 -15
-22 -23 -53 -27 -24 -3 -44 -2 -46 4 -2 5 -11 9 -20 9 -15 0 -15 -2 -2 -10 11
-7 3 -10 -30 -11 -25 -1 -54 -3 -65 -4 -11 -1 -32 2 -45 8 -14 5 -35 9 -46 8
-18 -2 -23 5 -29 44 -3 26 -5 48 -3 50 5 5 108 16 183 20 33 2 66 4 73 4 6 1
12 5 12 10 0 8 -63 7 -202 -3 -49 -3 -57 1 -37 21 7 7 6 14 -4 24 -7 8 -16 21
-20 29 -4 11 -6 11 -6 2 -1 -7 3 -22 9 -32 13 -25 2 -50 -22 -50 -16 0 -19 5
-14 20 3 11 9 29 12 40 4 12 2 20 -5 20 -6 0 -11 -9 -11 -21 0 -11 -4 -17 -10
-14 -6 4 -10 -5 -10 -20 0 -15 -4 -24 -10 -20 -6 3 -7 -1 -4 -9 3 -9 16 -16
29 -16 19 0 24 -7 29 -41 7 -46 1 -63 -22 -54 -8 3 -19 0 -24 -7 -5 -9 -8 -8
-8 6 0 18 -1 18 -18 -2 -15 -17 -29 -21 -70 -20 -39 2 -52 6 -52 17 0 11 -4
10 -16 -5 -10 -12 -14 -14 -11 -4 2 8 -2 21 -9 28 -8 7 -14 9 -14 5 0 -4 -7 1
-15 11 -11 14 -15 16 -15 5 -1 -10 -5 -8 -17 6 -12 15 -14 16 -10 3 5 -15 2
-16 -18 -8 -18 7 -25 6 -25 -3 0 -6 -7 -3 -15 7 -9 12 -15 15 -15 7 0 -11 -3
-11 -15 -1 -12 10 -15 10 -15 -4 0 -21 -9 -20 -26 1 -11 14 -13 15 -9 2 4 -9
0 -16 -9 -16 -8 0 -12 6 -9 13 2 6 0 15 -6 19 -7 4 -8 -1 -4 -12 6 -16 5 -17
-13 -3 -18 14 -18 14 -4 -5 8 -11 19 -23 25 -27 18 -13 -8 -27 -58 -32 -38 -3
-47 -1 -47 12 0 12 -4 11 -20 -6 -21 -22 -47 -31 -35 -12 4 6 -4 5 -19 -1 -14
-7 -23 -16 -20 -20 3 -5 -4 -9 -15 -9 -12 0 -21 5 -21 11 0 5 -5 7 -12 3 -7
-5 -8 -3 -4 5 5 7 15 10 23 7 8 -3 11 -1 8 4 -9 14 56 51 70 40 16 -13 11 38
-5 53 -12 10 -12 9 -2 -4 12 -16 7 -29 -10 -29 -5 0 -6 6 -2 13 4 6 4 9 -1 5
-9 -9 -35 9 -35 24 0 6 7 4 17 -3 15 -13 15 -12 2 9 -8 12 -15 18 -17 12 -2
-6 -9 -7 -15 -3 -22 14 -36 11 -30 -5 3 -10 -4 -7 -16 8 -17 20 -20 21 -14 5
6 -17 5 -18 -9 -7 -13 11 -15 7 -14 -27 1 -22 -2 -37 -7 -34 -5 3 -7 0 -5 -8
4 -13 17 -14 73 -5 39 6 35 -6 -10 -35 -25 -16 -50 -29 -56 -29 -18 0 -27 44
-15 75 7 17 11 40 10 53 -2 28 36 49 83 47 18 -1 30 2 27 7 -3 4 -9 6 -14 3
-5 -3 -12 0 -16 6 -4 8 -3 9 4 5 7 -4 12 -2 12 4 0 6 5 8 13 3 23 -14 39 -12
32 5 -5 13 -2 12 15 -3 16 -15 20 -16 15 -3 -4 9 0 19 7 24 7 4 10 4 6 -1 -4
-4 -3 -16 2 -26 7 -12 6 -19 -3 -22 -6 -3 -2 -5 9 -4 20 1 21 3 8 23 -13 19
-13 22 -1 27 8 3 20 0 26 -6 9 -9 10 -7 5 8 -7 18 -6 19 11 5 17 -14 17 -14 4
8 -8 12 -15 18 -17 12 -2 -6 -7 -8 -11 -5 -5 2 -41 -6 -82 -19 -41 -14 -92
-29 -115 -35 -36 -10 -41 -14 -37 -35 7 -34 -10 -39 -37 -11 -18 20 -21 27
-11 39 8 10 9 16 1 21 -5 3 -10 11 -10 17 0 6 10 2 22 -10 19 -17 27 -19 43
-9 11 6 31 12 45 13 14 2 26 8 28 14 2 5 8 8 12 5 5 -3 28 2 52 11 24 8 49 16
56 16 14 2 16 14 2 23 -6 3 -10 1 -10 -6 0 -8 -6 -6 -18 4 -10 10 -23 17 -28
17 -5 0 -1 -5 8 -11 10 -5 18 -15 18 -21 0 -6 -7 -5 -17 3 -9 8 -14 9 -10 3
10 -17 -23 -27 -39 -13 -8 6 -14 8 -14 4 0 -5 -10 0 -22 11 -23 19 -23 19 -5
-2 28 -34 19 -40 -13 -9 -17 16 -30 25 -30 21 0 -5 -8 -2 -18 5 -14 11 -13 9
2 -9 11 -12 17 -25 14 -27 -3 -3 -18 9 -33 27 -25 29 -28 31 -39 15 -10 -13
-16 -14 -27 -4 -8 7 3 -6 23 -28 55 -59 47 -68 -10 -12 -56 55 -75 52 -30 -5
40 -48 48 -81 13 -48 -14 13 -22 26 -20 30 3 4 -2 13 -10 20 -23 19 -10 -28
15 -55 l20 -22 -40 -16 c-41 -16 -51 -33 -25 -43 9 -4 15 -19 15 -35 0 -26 3
-29 24 -23 13 3 27 1 30 -5 4 -6 -10 -8 -39 -6 -32 3 -45 0 -45 -9 0 -12 35
-20 108 -28 16 -2 15 -14 -4 -43 -9 -13 -14 -32 -11 -42 4 -15 5 -14 6 4 0 12
5 24 9 27 4 2 6 -11 4 -29 l-4 -34 -56 2 c-46 2 -57 -1 -60 -15 -2 -11 3 -18
12 -18 22 0 20 -31 -2 -37 -13 -3 -19 -15 -20 -44 -3 -36 -1 -39 20 -36 21 4
23 10 25 67 1 34 4 64 7 67 2 3 13 0 24 -6 13 -7 22 -7 29 0 8 8 13 7 18 -2 5
-8 4 -10 -3 -5 -7 4 -13 2 -13 -3 -1 -6 -2 -16 -3 -22 0 -6 -8 -16 -17 -22 -9
-7 -18 -28 -20 -47 -4 -29 -1 -36 13 -36 10 0 20 6 23 14 2 7 0 10 -5 7 -6 -3
-10 3 -10 13 0 11 7 22 14 25 12 5 16 -5 19 -41 3 -41 4 -39 5 16 2 46 5 62
15 59 6 -2 11 -8 10 -13 0 -5 5 -15 13 -22 12 -11 14 -5 14 37 0 27 4 53 10
56 5 3 10 0 10 -7 0 -9 3 -9 10 2 8 12 10 12 11 -5 0 -11 3 -14 6 -7 2 6 11
12 20 12 11 0 13 -7 8 -29 -3 -17 -2 -32 4 -36 7 -4 11 7 11 29 0 20 4 36 9
36 5 0 16 2 24 5 10 5 13 -1 9 -25 -3 -21 -9 -30 -18 -26 -8 3 -14 -1 -14 -9
0 -8 6 -14 12 -13 7 2 12 -5 12 -14 -1 -11 3 -15 10 -11 6 3 6 0 -1 -8 -17
-17 -17 -32 0 -26 10 4 12 -3 9 -24 -3 -17 0 -29 7 -29 6 0 11 13 11 28 0 15
6 34 12 40 10 10 10 15 -1 21 -9 6 -12 21 -9 45 2 19 -1 38 -7 40 -6 3 -5 5 2
5 8 1 10 13 6 37 -4 25 -2 39 8 45 10 6 10 9 2 9 -7 0 -13 7 -13 15 0 13 3 13
20 3 15 -10 20 -24 20 -56 0 -32 -3 -41 -13 -36 -8 6 -8 3 1 -9 15 -17 12
-115 -3 -151 -6 -13 -4 -21 3 -24 18 -6 14 -30 -5 -35 -13 -3 -11 -5 6 -6 21
-1 23 2 17 33 -8 41 8 56 58 59 21 1 36 7 36 15 0 6 6 11 12 10 8 -2 15 13 19
37 l6 40 3 -35 c1 -19 2 -40 1 -45 -1 -15 217 -16 221 -1 2 6 1 31 -3 56 -4
28 -7 35 -7 18 -3 -38 -22 -35 -22 2 0 19 10 41 25 58 25 27 25 27 25 4 0 -16
5 -22 18 -20 20 4 30 -38 13 -55 -8 -8 -11 -3 -11 17 0 18 -4 26 -12 23 -8 -2
-13 -23 -13 -55 0 -48 2 -53 29 -62 19 -7 26 -15 22 -25 -3 -9 0 -15 10 -15 8
0 12 5 9 10 -3 6 -1 10 6 10 9 0 9 4 -2 12 -8 7 -12 12 -10 11 2 -2 10 2 18 8
7 6 14 8 14 3 1 -5 2 -13 4 -19 1 -5 3 -16 3 -22 1 -7 7 -13 13 -13 5 0 7 5 4
10 -3 6 0 10 7 10 9 0 10 2 2 8 -7 4 -12 28 -11 55 0 26 4 42 7 36 5 -7 9 -5
13 5 4 10 1 16 -8 16 -8 0 -15 5 -15 10 0 6 5 10 11 10 5 0 7 4 4 10 -7 12 42
36 52 26 7 -7 -9 -21 -32 -29 -5 -2 -1 -14 9 -26 11 -11 16 -22 13 -22 -4 -1
-13 -2 -19 -3 -16 -1 -18 -76 -2 -76 24 0 36 30 32 80 l-3 50 80 2 80 2 -75 6
c-41 4 -61 7 -45 9 17 1 55 4 86 6 31 3 70 6 88 7 17 1 31 6 31 10 0 4 8 8 19
8 21 0 35 -36 17 -44 -6 -2 -1 -8 11 -11 12 -4 24 -14 26 -24 3 -11 5 -9 6 7
0 12 -3 22 -9 22 -15 0 -12 17 5 24 12 4 15 -3 15 -33 0 -36 -2 -39 -35 -45
-39 -8 -41 -12 -20 -40 13 -17 15 -17 15 -4 0 9 4 20 10 23 11 7 7 -45 -5 -65
-4 -7 -2 -16 6 -21 10 -6 11 -11 3 -19 -8 -8 -16 -7 -28 6 -14 14 -22 15 -42
5 -14 -6 -37 -11 -51 -11 -15 0 -24 -3 -21 -6 4 -3 34 -6 67 -6 56 -1 74 -9
52 -22 -5 -4 -21 -7 -35 -8 -14 -1 -28 -7 -30 -14 -5 -14 76 -10 118 6 16 6
37 8 47 5 11 -4 19 -2 19 4 0 6 -22 11 -52 12 -45 0 -49 2 -29 10 14 5 36 8
51 6 24 -4 25 -3 21 32 l-5 36 -6 -30 c-5 -28 -6 -29 -18 -10 -7 13 -11 15
-12 6 0 -34 -19 7 -24 54 -4 35 -3 44 3 30 10 -22 15 -9 11 33 -1 14 4 22 14
22 11 0 13 -8 9 -35 -5 -30 -3 -34 11 -29 9 3 13 11 9 17 -4 7 0 8 11 4 10 -4
20 -7 22 -7 3 0 3 -4 0 -9 -3 -5 14 -8 39 -8 25 1 47 -2 50 -8 2 -5 4 13 4 40
-1 68 0 75 9 75 4 0 5 -23 3 -51 -2 -29 2 -56 8 -62 12 -12 14 -1 11 71 -1 36
1 42 19 42 25 0 27 -9 4 -25 -15 -11 -15 -13 5 -19 24 -8 31 -49 10 -62 -7 -4
-8 -3 -4 4 4 7 1 12 -8 12 -21 0 -20 -24 0 -44 20 -20 22 -20 20 2 0 11 6 16
17 16 12 -1 16 3 13 15 -13 46 -18 111 -7 111 6 0 12 -16 13 -35 0 -19 1 -40
2 -47 1 -13 39 -58 50 -58 3 0 6 7 6 15 0 8 -7 15 -15 15 -8 0 -16 8 -16 18
-5 75 -3 92 10 92 9 0 11 -7 8 -23 -4 -12 -2 -29 3 -37 7 -11 10 -4 11 25 2
37 2 38 6 7 2 -18 9 -30 14 -27 5 4 6 17 3 31 -5 18 -2 24 10 24 12 0 16 -10
16 -46 0 -27 -4 -43 -10 -39 -16 10 -12 -5 6 -22 15 -15 14 -17 -8 -30 l-23
-14 23 4 c12 3 22 1 22 -4 0 -5 9 0 20 11 11 11 27 20 35 20 8 0 15 7 15 15 0
27 20 16 21 -12 2 -24 2 -25 6 -5 3 16 11 22 29 22 14 0 23 4 20 8 -3 5 8 9
24 10 24 0 30 -4 30 -19 0 -16 5 -19 20 -14 14 5 20 2 20 -10 0 -9 -6 -15 -12
-14 -32 4 -69 -2 -64 -10 3 -5 15 -7 26 -4 22 6 28 -12 8 -20 -7 -3 2 -6 20
-6 22 -1 32 -6 32 -16 0 -12 -11 -14 -60 -11 -33 2 -60 0 -60 -5 0 -5 32 -9
70 -9 l70 0 -6 -62 c-3 -35 -1 -75 5 -90 8 -21 7 -27 -5 -32 -9 -3 -19 -4 -24
-1 -4 3 -11 -2 -14 -11 -3 -9 -2 -12 4 -9 6 4 24 -5 40 -18 25 -22 27 -27 15
-37 -19 -16 -178 -16 -183 -1 -2 6 -7 9 -12 6 -11 -7 -61 16 -55 24 2 4 -5 8
-16 8 -33 3 -20 -21 25 -44 25 -12 53 -19 65 -16 12 3 21 1 21 -6 0 -7 27 -11
75 -11 52 0 77 -4 79 -12 2 -7 11 -38 20 -68 l16 -55 -6 75 c-8 122 -47 535
-56 598 -1 6 -7 12 -14 12 -7 0 -15 -6 -17 -12 -4 -10 -6 -10 -6 0 -1 6 -6 12
-12 12 -5 0 -7 -5 -3 -11 4 -8 -1 -9 -17 -3 -13 5 -37 8 -54 8 -16 -1 -35 5
-42 12 -11 11 -8 16 18 30 22 11 28 18 19 24 -7 5 -2 8 14 8 33 0 45 -18 17
-25 -20 -5 -29 -22 -13 -24 38 -4 103 -6 89 -2 -10 3 -16 11 -14 18 3 7 -9 23
-26 35 -18 13 -36 29 -40 37 -4 7 -13 13 -19 13 -7 0 -7 -5 1 -14 10 -12 5
-14 -27 -13 -34 2 -38 5 -34 24 3 17 -3 26 -22 34 -27 13 -35 29 -13 29 6 0
27 -9 45 -20 37 -23 42 -24 42 -9 0 5 -4 7 -10 4 -6 -4 -7 1 -3 11 4 12 3 15
-5 10 -8 -5 -10 -1 -5 10 5 14 9 11 22 -13 14 -26 21 -30 66 -30 27 -1 55 3
61 7 7 6 11 -4 13 -33 1 -23 3 -43 5 -44 2 -2 11 7 22 19 10 12 14 18 8 15 -7
-4 -15 0 -18 9 -3 8 -2 12 3 9 5 -3 12 -1 16 4 3 5 -3 14 -12 20 -10 6 -16 11
-13 11 3 1 24 3 47 6 37 4 42 3 36 -11 -3 -10 -13 -15 -23 -12 -9 2 -17 -1
-17 -9 0 -7 3 -13 6 -12 19 2 31 -3 31 -13 0 -6 -6 -9 -14 -6 -8 3 -21 -2 -30
-12 -14 -15 -14 -18 -1 -18 8 0 15 7 16 16 0 11 2 12 6 3 2 -6 10 -9 16 -5 6
4 8 0 4 -9 -4 -12 -1 -14 14 -11 13 4 19 0 19 -12 0 -16 -7 -17 -59 -11 -55 6
-59 5 -54 -12 4 -16 12 -18 59 -14 36 3 54 1 54 -7 0 -7 -23 -12 -57 -13 l-58
-1 50 -7 50 -7 -47 -1 c-56 -2 -61 -16 -28 -84 22 -47 25 -68 9 -68 -6 0 -3
-7 6 -16 11 -12 13 -20 5 -29 -7 -8 -8 -37 -4 -79 l7 -65 55 4 c30 3 57 7 59
8 2 2 0 31 -3 65 l-7 62 -45 0 c-42 0 -44 1 -40 25 3 14 1 28 -3 31 -12 7 -11
44 1 44 6 0 10 9 10 20 0 11 -4 20 -9 20 -12 0 -22 40 -10 42 30 4 32 1 31
-71 0 -59 3 -78 16 -88 25 -18 42 -16 42 7 0 23 -10 26 -28 8 -9 -9 -12 -8
-12 4 0 9 6 19 13 21 10 4 10 6 0 6 -7 1 -13 8 -13 16 0 9 6 12 15 9 10 -4 15
0 15 15 0 23 -15 29 -23 9 -3 -7 -6 2 -6 21 -1 25 2 32 14 27 8 -3 15 -1 15 4
0 6 -8 10 -17 10 -14 0 -15 2 -4 9 9 6 12 25 10 66 -3 42 0 60 9 63 7 2 16 -5
19 -17 5 -18 13 -21 59 -21 30 0 54 5 54 10 0 6 5 10 11 10 5 0 8 -4 5 -8 -3
-5 1 -9 9 -9 12 0 12 4 -2 21 -10 12 -14 18 -9 14 5 -4 14 -4 21 2 6 5 28 10
49 12 20 1 39 5 42 9 2 4 -7 6 -21 4 -37 -4 -41 12 -5 20 29 6 50 30 50 57 0
11 -2 11 -9 0 -4 -8 -10 -12 -12 -11 -6 5 -157 -80 -161 -90 -2 -5 -12 -5 -22
-2 -15 6 2 19 79 64 84 49 103 56 131 51 36 -7 91 3 80 13 -15 16 -204 19
-219 4 -14 -14 -6 -14 30 -1 26 9 27 9 9 -5 -11 -8 -16 -15 -10 -15 5 0 -11
-10 -36 -22 -25 -12 -54 -29 -65 -39 -19 -17 -21 -17 -43 1 -13 11 -21 24 -17
30 3 5 1 10 -6 10 -9 0 -9 3 0 14 10 12 8 13 -8 9 -12 -3 -18 -9 -15 -14 3 -5
0 -9 -5 -9 -6 0 -11 6 -11 13 0 17 131 87 160 87 12 0 19 4 16 8 -3 5 8 9 24
10 16 0 32 -4 35 -9 4 -5 21 -3 41 6 18 7 34 12 34 9 0 -3 7 1 15 8 36 33 46
39 54 34 10 -6 21 16 21 41 0 14 -3 13 -25 -1 -33 -22 -33 -21 -40 22 -4 20
-9 44 -11 53 -3 12 5 18 36 23 22 3 40 11 40 16 0 13 -17 13 -26 -1 -3 -6 -17
-8 -31 -4 -14 3 -31 1 -39 -6 -11 -9 -18 -8 -32 4 -12 11 -22 13 -32 7z m49
-86 c7 -37 9 -69 6 -72 -3 -3 -36 -8 -73 -10 -37 -2 -71 -7 -77 -11 -5 -4 -26
-8 -45 -10 -46 -4 -52 -11 -9 -11 l34 0 -47 -30 c-27 -17 -52 -30 -58 -30 -25
0 -6 39 42 87 46 47 50 53 28 49 -14 -2 -27 -5 -30 -6 -3 -2 -8 -2 -12 -2 -3
1 -12 -6 -20 -15 -9 -12 -9 -15 0 -9 16 9 11 -29 -6 -46 -9 -9 -12 -6 -12 13
0 17 -3 20 -9 11 -9 -14 -21 28 -21 72 0 30 52 79 74 70 16 -6 16 -8 -1 -28
-11 -13 -7 -12 12 5 26 23 38 27 88 25 32 -1 63 2 70 6 7 4 22 8 33 8 19 0 23
-9 33 -66z m-420 -84 c-18 -22 -35 -36 -39 -30 -5 8 -50 -39 -50 -52 0 -13 40
-3 45 11 7 23 55 68 55 52 0 -7 5 -9 12 -5 7 5 8 2 3 -7 -16 -27 -38 -48 -46
-44 -13 9 -22 -16 -10 -28 14 -14 14 -67 0 -67 -5 0 -7 5 -3 12 4 7 3 8 -4 4
-16 -10 -15 6 1 24 9 11 8 11 -7 0 -18 -14 -19 -13 -13 5 6 16 3 15 -13 -5
-21 -27 -27 -21 -10 11 6 10 8 19 6 19 -3 0 -13 -14 -22 -31 -8 -17 -11 -28
-5 -25 6 4 11 2 11 -5 0 -7 7 -4 16 7 14 17 15 17 10 1 -3 -11 -2 -16 4 -12 6
3 10 1 10 -5 0 -7 -7 -10 -15 -6 -8 3 -15 0 -15 -7 0 -8 -4 -6 -10 3 -5 8 -10
11 -10 5 -1 -12 -29 36 -29 50 -1 6 3 4 8 -3 7 -11 9 -10 14 3 4 9 3 13 -3 10
-6 -3 -10 -1 -10 4 0 6 -5 11 -11 11 -5 0 -8 -4 -5 -8 3 -5 -4 -21 -15 -38
-10 -16 -19 -23 -19 -16 0 7 -4 10 -10 7 -7 -4 -6 4 0 22 l10 28 -21 -25 c-15
-18 -19 -20 -15 -7 3 10 2 15 -3 12 -5 -3 -12 -1 -16 5 -3 5 1 10 10 10 11 0
15 5 12 14 -4 10 -1 13 7 10 8 -3 23 10 37 32 13 22 25 32 27 25 3 -9 13 -4
29 15 22 26 23 26 11 4 -30 -53 -30 -53 -38 -40 -5 7 -12 3 -24 -14 -19 -29
-11 -35 11 -8 11 13 14 14 10 2 -3 -10 2 -16 14 -17 10 -1 19 3 19 8 0 6 -4 7
-10 4 -5 -3 -10 -2 -10 4 0 16 18 23 22 9 3 -8 10 -3 18 12 12 23 12 24 -3 11
-10 -7 -17 -9 -17 -3 0 5 7 15 15 22 12 10 15 10 15 -1 0 -8 12 0 26 16 23 27
24 28 14 5 -9 -21 -6 -20 16 8 15 17 31 32 36 32 5 0 -6 -18 -23 -40z m-1725
-51 c4 6 4 17 0 24 -4 6 5 1 19 -12 20 -18 24 -27 15 -32 -7 -4 -18 -3 -24 2
-8 6 -14 4 -18 -7 -6 -15 -12 -13 -41 16 -19 19 -31 38 -28 47 4 11 13 7 38
-17 21 -20 35 -28 39 -21z m-70 -125 c34 -34 46 -67 27 -78 -10 -7 -101 75
-101 91 0 10 14 20 32 22 3 1 22 -15 42 -35z m165 -14 c27 -37 17 -64 -11 -29
-12 15 -18 17 -15 7 4 -11 1 -15 -11 -13 -9 2 -18 4 -19 5 -2 2 -8 3 -15 4 -6
0 -12 11 -14 23 -4 21 9 25 34 10 7 -5 14 -2 18 7 8 20 7 21 33 -14z m1795 14
c11 -28 6 -49 -14 -62 -18 -11 -20 -10 -20 17 0 34 9 61 20 61 4 0 11 -7 14
-16z m-1494 -74 c0 -5 -9 -14 -20 -20 -17 -9 -20 -8 -20 10 0 13 7 20 20 20
11 0 20 -4 20 -10z m118 -23 c3 -26 2 -28 -18 -17 -18 10 -26 8 -46 -11 -24
-22 -35 -14 -12 9 9 9 9 12 -1 12 -8 0 -19 -6 -25 -14 -15 -19 -71 -32 -60
-14 24 39 79 65 134 64 20 -1 26 -7 28 -29z m318 -12 c5 -11 17 -14 54 -9 31
4 50 2 55 -5 4 -8 -4 -11 -27 -11 -18 1 -96 -1 -173 -4 -94 -3 -124 -2 -90 4
28 4 74 9 104 9 43 1 52 4 47 16 -3 9 0 15 10 15 8 0 17 -7 20 -15z m704 -38
c18 -19 33 -127 18 -127 -5 0 -9 12 -9 28 l-2 27 -4 -27 c-3 -21 -10 -28 -26
-28 -17 0 -19 -2 -7 -9 8 -6 18 -7 22 -5 4 3 8 1 8 -4 0 -8 -41 -25 -46 -19
-1 1 -4 27 -5 57 -4 58 4 67 44 47 16 -7 18 -5 15 15 -2 13 -9 22 -17 20 -21
-4 -51 28 -51 54 0 23 1 23 21 6 12 -9 30 -25 39 -35z m-1210 0 c0 -4 -4 -5
-10 -2 -5 3 -10 -1 -10 -9 0 -8 5 -18 11 -22 6 -3 8 -17 5 -30 -6 -24 -6 -24
71 -23 43 1 70 3 61 6 -24 6 -23 19 2 26 11 3 18 2 15 -3 -3 -4 2 -10 10 -14
32 -12 13 -26 -36 -26 -34 0 -48 -4 -43 -11 4 -6 20 -8 40 -4 27 5 34 3 34
-10 0 -8 -7 -15 -15 -15 -8 0 -15 -4 -15 -10 0 -5 18 -10 40 -10 29 0 40 -4
40 -15 0 -12 -17 -15 -93 -15 -52 0 -96 3 -100 6 -3 4 0 22 8 40 8 20 10 36 4
39 -5 4 -9 1 -9 -6 0 -8 -4 -8 -15 1 -8 7 -15 29 -16 49 -1 31 -2 33 -8 11 -6
-22 -13 -25 -54 -28 -46 -3 -47 -3 -47 27 0 30 1 31 50 31 50 0 50 0 50 33 1
30 1 31 15 13 8 -11 15 -24 15 -29z m-354 4 c8 6 17 9 20 6 3 -3 -4 -11 -16
-17 -35 -19 -9 -26 65 -20 36 3 68 4 71 1 2 -2 4 -15 4 -28 0 -25 -14 -28
-111 -23 -34 1 -48 -2 -52 -14 -4 -9 -2 -16 3 -16 6 0 10 -9 10 -20 0 -11 -4
-20 -9 -20 -18 0 -23 41 -15 113 4 40 10 62 12 49 3 -19 6 -21 18 -11z m1123
8 c21 -17 23 -23 13 -39 -10 -16 -8 -20 8 -25 26 -8 47 4 29 16 -12 7 -12 9
-1 9 8 0 16 -9 19 -21 4 -16 8 -17 14 -7 6 9 9 6 9 -10 0 -13 -4 -20 -10 -17
-5 3 -10 0 -10 -8 0 -7 7 -14 15 -14 10 0 15 10 15 29 0 18 5 28 14 28 21 0
30 -20 17 -33 -6 -6 -11 -20 -11 -30 0 -16 -6 -18 -30 -15 -16 2 -32 0 -34 -6
-3 -6 -12 -3 -21 9 -15 19 -15 20 4 23 31 5 25 24 -6 22 -48 -3 -56 -1 -45 13
6 8 6 20 0 37 -7 17 -12 20 -15 11 -4 -9 -8 -10 -12 -2 -5 8 -60 8 -209 -1
-175 -10 -199 -13 -184 -25 9 -8 12 -12 6 -9 -17 8 -23 -15 -18 -64 4 -36 3
-42 -10 -37 -9 4 -16 2 -16 -3 0 -5 8 -10 18 -12 14 -3 13 -5 -6 -10 -21 -6
-22 -3 -20 30 2 21 8 40 13 44 6 4 2 8 -7 8 -10 0 -18 5 -18 10 0 6 5 10 10
10 11 0 14 33 3 43 -3 4 -14 0 -23 -8 -16 -14 -18 -14 -24 1 -11 28 12 34 129
35 157 2 384 15 310 18 -44 2 -55 5 -40 11 37 16 99 10 124 -11z m-999 -12 c8
-2 -4 -6 -27 -8 -34 -4 -41 -1 -40 12 1 13 7 15 27 9 14 -5 32 -10 40 -13z
m475 14 c28 -2 29 -2 11 -16 -14 -10 -23 -12 -32 -4 -8 7 -14 7 -19 -1 -10
-16 -25 -12 -25 7 0 13 -9 8 -35 -17 -19 -19 -35 -31 -35 -27 0 16 64 64 84
62 11 -1 35 -3 51 -4z m-290 -11 c-3 -5 -24 -10 -46 -10 -21 0 -39 5 -39 10 0
6 21 10 46 10 27 0 43 -4 39 -10z m120 -18 c6 -4 12 -18 13 -32 1 -17 -2 -20
-7 -11 -9 14 -51 7 -51 -10 0 -5 -4 -9 -8 -9 -4 0 -8 16 -8 35 0 31 3 35 26
35 14 0 30 -4 35 -8z m1053 -17 c3 -3 -13 -5 -36 -5 -23 0 -42 4 -42 10 0 10
68 6 78 -5z m150 -50 c-1 -19 -5 -32 -9 -30 -4 3 -10 -1 -12 -7 -3 -7 -6 6 -6
30 -1 31 3 42 14 42 10 0 14 -10 13 -35z m69 0 c-1 -23 -6 -35 -15 -35 -8 0
-12 6 -8 15 3 9 0 15 -9 15 -9 0 -12 -6 -8 -17 4 -10 2 -14 -4 -10 -5 3 -10
19 -11 35 0 24 4 28 28 30 26 2 28 0 27 -33z m54 25 c5 0 9 -10 9 -22 0 -19
-2 -20 -10 -8 -8 12 -10 10 -10 -10 0 -18 -3 -21 -9 -11 -7 11 -9 11 -14 0 -3
-8 -6 3 -6 25 -1 31 2 37 15 32 9 -3 20 -6 25 -6z m-1432 -72 l-2 -43 -7 35
-7 35 -2 -31 c-1 -30 -14 -42 -64 -58 -16 -5 -18 0 -15 42 l3 47 45 6 c25 3
46 7 48 7 1 1 1 -17 1 -40z m311 -38 c0 -11 -7 -20 -15 -20 -8 0 -15 9 -15 20
0 11 7 20 15 20 8 0 15 -9 15 -20z m1250 -100 c35 0 38 -2 35 -22 -4 -21 -30
-48 -45 -48 -11 0 -38 34 -40 50 -4 25 1 47 7 33 2 -7 22 -13 43 -13z"/>
<path d="M2616 1381 c-15 -16 -23 -31 -18 -35 14 -8 148 -10 162 -1 6 4 9 13
6 20 -7 18 13 24 43 13 16 -6 28 -5 35 2 8 9 7 11 -4 10 -30 -4 -51 0 -45 10
4 6 -3 9 -17 7 -13 -2 -23 -9 -23 -15 0 -19 -12 -23 -67 -25 -29 -2 -59 -6
-65 -10 -20 -13 -15 5 9 30 12 13 19 23 17 23 -3 0 -18 -13 -33 -29z"/>
<path d="M2284 1429 c-3 -6 -17 -8 -31 -4 -14 3 -31 1 -38 -5 -10 -8 -19 -8
-35 2 -17 11 -22 11 -29 0 -5 -9 -17 -11 -36 -6 -18 4 -30 2 -35 -7 -7 -11
-13 -11 -34 0 -20 11 -28 11 -40 2 -8 -7 -24 -10 -35 -6 -10 3 -22 1 -26 -5
-4 -6 -20 -8 -41 -4 -24 4 -34 3 -34 -6 0 -9 19 -11 75 -8 41 3 75 2 75 -2 0
-4 27 -3 61 2 63 10 76 7 64 -12 -6 -9 -9 -9 -15 0 -6 9 -12 6 -21 -11 -11
-21 -11 -23 3 -11 13 10 17 10 21 0 3 -8 9 -2 17 15 7 15 17 27 22 27 5 0 4
-9 -2 -19 -16 -31 -12 -38 7 -11 10 14 17 28 15 33 -1 4 3 7 9 7 6 0 8 -7 5
-15 -18 -44 -16 -47 8 -16 31 42 34 32 5 -15 -29 -47 -18 -43 16 6 31 45 48
47 21 3 -17 -27 -17 -27 8 2 14 17 35 31 46 31 26 2 25 -2 -5 -42 -14 -18 -25
-36 -25 -40 0 -4 16 14 35 39 23 30 42 45 55 44 11 -1 20 -5 20 -10 0 -4 5 -5
12 -1 7 4 8 3 4 -5 -4 -6 -11 -9 -16 -6 -5 3 -12 0 -16 -6 -4 -8 -3 -9 4 -5
15 9 15 -7 1 -21 -9 -9 -7 -12 10 -10 11 1 35 16 53 34 34 35 33 36 -36 48
-29 5 -36 9 -25 16 11 7 10 9 -6 9 -12 0 -26 -5 -33 -12 -9 -9 -15 -9 -24 0
-15 15 -25 15 -34 1z"/>
<path d="M1011 1401 c-11 -7 -10 -10 5 -14 19 -5 -48 -11 -76 -7 -14 2 -10 -4
43 -65 5 -5 1 6 -8 25 l-18 35 27 -25 c24 -22 26 -22 21 -5 -5 15 1 12 21 -10
26 -29 26 -29 10 -3 -9 15 -16 29 -16 31 0 10 83 -1 90 -13 5 -8 7 1 5 21 -3
38 -24 49 -45 24 -15 -18 -31 -20 -27 -4 3 15 -15 21 -32 10z"/>
<path d="M1136 1388 c-14 -19 -13 -24 5 -50 26 -36 34 -36 14 2 -17 34 -18 40
-6 40 5 0 14 -14 20 -32 6 -17 14 -29 17 -25 3 3 1 14 -5 25 -13 25 -14 32 -2
32 5 0 12 -11 15 -25 4 -14 11 -25 16 -25 6 0 6 9 0 25 -6 15 -6 25 0 25 5 0
12 -9 15 -20 3 -11 11 -20 16 -20 6 0 6 8 -1 20 -8 14 -8 20 0 20 6 0 13 -6
16 -13 2 -7 14 -13 24 -14 13 -1 18 2 14 9 -5 7 -2 9 9 5 8 -3 32 -1 53 5 33
9 36 11 19 20 -13 8 -24 7 -36 0 -12 -8 -20 -8 -24 -1 -4 6 -20 7 -37 4 -21
-5 -33 -3 -39 6 -7 12 -12 12 -30 1 -15 -10 -24 -11 -32 -3 -16 16 -24 14 -41
-11z"/>
<path d="M696 1369 c21 -24 28 -24 20 -1 -4 9 12 -2 36 -25 48 -47 74 -59 33
-16 -28 31 -30 39 -13 49 7 5 8 2 3 -7 -5 -8 -4 -11 0 -6 5 4 22 -5 38 -20
l30 -28 -27 36 c-25 34 -30 37 -82 37 -53 0 -54 -1 -38 -19z"/>
<path d="M546 1371 c-7 -10 29 -44 51 -47 10 -2 6 7 -13 27 -31 32 -31 32 -38
20z"/>
<path d="M1890 1362 c-38 -4 -50 -15 -49 -47 0 -16 3 -14 16 10 14 25 18 27
21 12 4 -18 4 -18 18 0 13 17 13 17 14 -1 0 -20 0 -20 15 0 14 19 14 19 15 -1
0 -17 2 -17 10 -5 22 34 14 39 -60 32z"/>
<path d="M1988 1359 c-10 -5 -18 -15 -18 -21 0 -7 5 -6 15 2 12 10 15 10 15 0
0 -10 3 -10 15 0 8 7 12 16 9 21 -7 11 -15 11 -36 -2z"/>
<path d="M2034 1339 c-14 -28 -14 -30 8 -38 26 -10 33 -7 24 8 -4 6 -14 7 -23
4 -14 -6 -14 -2 3 19 10 14 22 22 25 16 3 -5 11 -3 18 5 9 12 7 15 -14 15 -18
0 -30 -9 -41 -29z"/>
<path d="M1340 1348 c-12 -4 -18 -13 -14 -19 4 -7 9 -7 13 -2 8 12 53 24 46
13 -3 -5 -1 -11 5 -15 5 -3 10 3 10 14 0 21 -20 24 -60 9z"/>
<path d="M2114 1322 c-26 -3 -31 -7 -27 -22 3 -11 9 -17 14 -14 5 3 7 10 4 15
-4 5 6 9 22 9 15 0 35 5 43 10 12 7 11 9 -5 7 -11 -1 -34 -3 -51 -5z"/>
<path d="M1220 1306 c0 -15 -3 -16 -15 -6 -8 7 -15 8 -15 3 0 -5 -10 -9 -22
-10 -31 -3 -108 -24 -112 -32 -2 -3 16 -4 40 -2 24 1 44 7 44 12 0 5 44 10 98
10 53 1 84 4 67 6 -16 2 -36 12 -44 21 -13 16 -13 16 -8 0 4 -10 2 -18 -3 -18
-5 0 -14 8 -19 18 -10 16 -10 16 -11 -2z"/>
<path d="M1957 1314 c-1 -2 -21 -4 -45 -5 -42 -3 -49 -13 -9 -14 13 0 21 -6
19 -13 -1 -8 2 -11 8 -7 6 3 8 11 5 16 -4 5 13 9 36 9 23 0 39 3 35 7 -6 7
-44 12 -49 7z"/>
<path d="M1080 1303 c0 -5 -34 -8 -75 -7 -50 1 -75 -2 -75 -10 0 -7 -3 -7 -8
-1 -4 6 -16 11 -27 13 -20 2 -20 2 0 -9 11 -7 29 -19 39 -28 18 -15 19 -15 12
4 -4 11 -4 16 0 12 4 -4 13 -2 21 4 9 9 13 8 13 0 0 -6 -4 -11 -10 -11 -5 0
-10 -4 -10 -9 0 -5 24 -2 53 6 83 25 92 29 79 37 -7 4 -12 3 -12 -1z"/>
<path d="M1340 1288 c0 -5 32 -8 72 -8 39 0 68 3 64 7 -9 9 -136 10 -136 1z"/>
<path d="M1490 1288 c0 -5 8 -8 18 -8 14 0 15 -2 2 -10 -10 -7 16 -9 80 -8 93
1 94 2 30 8 -36 4 -56 7 -45 8 53 5 38 18 -20 18 -36 -1 -65 -4 -65 -8z"/>
<path d="M2146 1233 c-18 -38 -30 -52 -35 -44 -6 10 -10 9 -15 -4 -5 -13 0
-15 25 -13 24 3 36 14 60 57 17 29 26 50 20 46 -6 -3 -22 -27 -36 -53 -13 -26
-24 -41 -25 -34 0 7 9 31 21 53 11 23 19 43 17 45 -2 2 -17 -22 -32 -53z"/>
<path d="M2020 1245 c-5 -14 -12 -36 -16 -49 -4 -18 -13 -23 -42 -25 -20 -1
-57 -4 -82 -6 -25 -2 -56 -4 -69 -4 -13 -1 -21 -4 -18 -7 13 -14 237 3 237 17
0 6 -4 7 -10 4 -14 -8 -13 5 5 54 15 44 11 58 -5 16z"/>
<path d="M1027 1243 c6 -15 4 -16 -8 -6 -27 22 -40 0 -16 -28 12 -13 19 -20
15 -15 -14 18 -8 29 7 16 13 -11 14 -10 8 6 -6 17 -5 17 10 6 14 -12 15 -11 4
12 -13 29 -30 36 -20 9z"/>
<path d="M2930 1245 c-11 -13 -10 -14 3 -10 8 4 18 2 22 -4 3 -6 16 -11 28
-11 l22 1 -24 19 c-28 24 -35 25 -51 5z"/>
<path d="M219 1246 c-2 -3 -34 -6 -69 -7 -104 -2 -150 -10 -150 -25 0 -15 8
-16 123 -14 l77 1 0 -40 c0 -29 -4 -41 -14 -41 -8 0 -13 -6 -12 -12 5 -23 26
-71 30 -67 2 2 6 46 9 98 3 63 9 96 19 102 7 5 8 9 2 9 -6 0 -13 -2 -15 -4z"/>
<path d="M1281 1160 c6 -16 18 -30 27 -31 93 -5 129 -3 121 7 -5 6 -34 9 -69
7 -57 -3 -61 -2 -70 22 -14 36 -21 31 -9 -5z"/>
<path d="M875 1150 c-11 -5 -14 -9 -7 -9 6 -1 12 -6 12 -12 0 -5 -6 -7 -12 -3
-8 4 -10 3 -5 -2 5 -5 12 -9 15 -9 4 0 14 -4 22 -10 13 -8 13 -7 1 8 -12 15
-11 17 5 14 11 -1 25 -6 32 -10 7 -5 12 -3 12 3 0 6 4 9 9 5 5 -3 12 -1 16 5
4 6 -11 10 -40 10 -28 0 -44 4 -40 10 7 11 7 11 -20 0z"/>
<path d="M989 1157 c-6 -18 -5 -38 2 -43 5 -3 9 0 9 6 0 8 9 10 26 6 22 -6 24
-5 13 7 -13 12 -48 29 -50 24z"/>
<path d="M1211 1146 c-1 -15 5 -17 29 -14 17 3 30 0 30 -5 0 -6 3 -8 6 -4 3 3
1 14 -5 24 -6 10 -11 12 -11 6 0 -7 -9 -13 -19 -13 -11 0 -22 6 -24 13 -3 7
-6 4 -6 -7z"/>
<path d="M2439 1050 c-21 -17 -22 -21 -9 -30 26 -17 39 -11 38 20 -1 17 -2 30
-3 30 -2 0 -13 -9 -26 -20z"/>
<path d="M165 1040 c4 -6 -6 -10 -22 -11 -54 0 -115 -8 -121 -13 -3 -4 29 -5
71 -4 62 2 81 -2 94 -15 12 -12 13 -17 4 -17 -8 0 -10 -7 -6 -20 4 -11 2 -20
-4 -20 -6 0 -10 -4 -9 -9 2 -5 -1 -8 -7 -7 -10 1 -11 5 -4 41 4 18 -2 20 -68
23 l-73 3 1 -28 c0 -15 3 -23 5 -16 3 7 21 17 41 24 29 9 38 9 51 -5 14 -14
14 -16 -1 -22 -10 -3 -31 -4 -47 -2 -20 3 -30 0 -30 -9 0 -9 15 -13 50 -13 28
0 50 -4 50 -10 0 -5 -4 -10 -10 -10 -5 0 -10 -7 -10 -15 0 -8 7 -15 15 -15 8
0 15 5 15 10 0 6 9 10 20 10 11 0 20 -7 20 -15 0 -12 -16 -15 -80 -15 -93 0
-111 -19 -20 -21 74 -2 77 -2 86 -11 4 -5 0 -8 -9 -8 -10 0 -17 -8 -17 -20 0
-11 7 -20 15 -20 20 0 19 -16 -1 -24 -22 -9 -24 -8 -25 12 0 13 -2 14 -6 2 -4
-8 -13 -20 -22 -27 -13 -9 -11 -10 12 -6 17 3 27 1 27 -7 0 -7 -7 -10 -15 -6
-8 3 -15 1 -15 -4 0 -13 23 -13 37 1 6 6 13 7 16 1 8 -12 -50 -55 -63 -47 -6
3 -10 -1 -10 -9 0 -22 20 -20 47 6 27 25 34 22 22 -9 -6 -18 -16 -23 -44 -23
-19 0 -35 -4 -35 -8 0 -5 13 -7 29 -4 23 3 30 -1 35 -20 7 -22 7 -22 16 -3 6
14 9 3 9 -40 0 -33 -3 -53 -7 -44 -5 12 -13 14 -27 8 -17 -6 -17 -8 -2 -8 26
-1 20 -19 -8 -23 l-25 -3 25 -11 c13 -7 23 -9 22 -5 -1 3 3 7 8 9 6 1 10 -4
10 -10 0 -7 -13 -16 -30 -19 -24 -5 -27 -7 -13 -13 10 -5 18 -16 18 -26 0 -30
-29 -44 -86 -43 -30 1 -57 -3 -60 -8 -3 -5 32 -9 80 -9 68 0 86 -3 86 -14 0
-8 -6 -17 -13 -19 -7 -3 -5 -6 6 -6 13 -1 17 7 17 37 0 28 -3 33 -10 22 -8
-11 -10 -3 -8 30 2 30 7 44 16 42 9 -1 12 29 12 125 0 71 5 199 10 287 8 131
7 161 -5 172 -16 16 -39 19 -30 4z"/>
<path d="M2848 1009 c-7 -4 -15 -6 -19 -3 -4 2 -10 1 -13 -4 -2 -4 23 -8 57
-8 33 -1 63 -6 65 -12 4 -12 54 0 59 15 2 6 -5 13 -17 16 -11 3 -20 1 -20 -3
0 -5 -8 -7 -17 -5 -10 2 -18 4 -18 5 0 6 -67 5 -77 -1z"/>
<path d="M576 959 c10 -11 13 -19 7 -17 -6 2 -12 -1 -12 -7 -2 -12 44 -15 61
-4 10 7 9 9 -3 9 -8 0 -25 9 -37 20 -28 26 -40 26 -16 -1z"/>
<path d="M2650 970 c0 -6 45 -10 122 -10 67 0 119 2 117 5 -11 10 -239 16
-239 5z"/>
<path d="M2934 945 c-10 -8 -35 -15 -54 -16 l-35 -2 35 -6 c19 -3 37 -3 38 1
5 12 50 10 57 -2 11 -18 25 -10 25 15 0 19 -5 25 -23 25 -13 0 -32 -7 -43 -15z"/>
<path d="M2654 934 c3 -9 6 -18 6 -20 0 -2 23 -4 50 -4 28 0 50 -4 50 -10 0
-5 -9 -10 -20 -10 -11 0 -20 -6 -21 -12 0 -7 -4 -4 -9 7 -7 16 -9 11 -9 -22
-1 -23 5 -46 12 -50 6 -4 20 -17 30 -29 17 -20 16 -22 -10 -48 -22 -22 -24
-29 -13 -36 10 -6 21 -4 32 7 29 26 48 9 48 -42 l0 -45 -37 0 c-38 0 -72 -14
-62 -24 8 -8 80 -9 109 -1 39 10 61 13 113 14 36 1 47 5 47 17 0 10 6 14 15
10 9 -3 15 0 15 8 0 9 -7 12 -20 9 -11 -3 -20 -1 -20 5 0 5 -13 12 -30 14 -16
3 -30 1 -30 -4 0 -4 -18 -8 -41 -8 -32 0 -40 3 -37 17 2 9 9 18 17 21 8 3 11
0 7 -7 -4 -6 -3 -11 3 -11 5 0 17 -3 27 -7 12 -4 15 -3 10 5 -8 13 -1 16 49
26 19 4 25 3 17 -2 -11 -8 -11 -10 2 -15 8 -3 18 -2 21 4 4 5 11 7 16 4 5 -4
9 3 9 14 0 18 -6 21 -40 21 -30 0 -40 4 -40 16 0 12 7 15 30 12 17 -3 30 -1
30 4 0 4 -10 8 -22 8 -39 0 -48 13 -44 58 2 24 0 40 -5 36 -5 -3 -9 7 -10 23
0 25 -1 26 -9 8 -5 -11 -9 -14 -9 -7 -1 7 -5 11 -10 7 -6 -3 -10 -29 -9 -57 0
-38 2 -48 9 -35 14 25 29 21 29 -7 0 -18 -7 -26 -22 -29 -20 -4 -19 -4 5 -6
19 -1 27 -6 27 -19 0 -15 -6 -17 -34 -14 l-35 4 1 62 c1 35 -1 67 -4 72 -2 5
-4 16 -3 24 1 8 3 23 3 32 1 11 13 18 35 21 17 2 -26 5 -97 5 -113 2 -127 0
-122 -14z m166 -66 c0 -40 2 -87 3 -105 3 -30 1 -32 -30 -30 -27 2 -30 4 -18
13 11 9 13 22 9 59 -5 35 -3 49 7 56 11 7 11 9 -3 9 -12 0 -18 8 -18 25 0 19
5 25 21 25 11 0 17 5 14 10 -3 6 -2 10 4 10 6 0 10 -31 11 -72z"/>
<path d="M1693 890 c-22 -9 -32 -30 -15 -30 4 0 12 -11 19 -25 10 -22 9 -25
-8 -25 -11 0 -24 10 -29 23 l-9 22 0 -22 c-1 -33 -21 -39 -21 -6 0 22 -2 25
-10 13 -6 -10 -10 -11 -10 -2 0 6 -7 12 -16 12 -10 0 -14 -6 -10 -15 3 -9 -3
-19 -14 -25 -11 -6 -17 -16 -14 -25 10 -26 -41 -19 -54 8 -9 20 -10 20 -7 -8
2 -23 7 -30 24 -29 16 0 21 -5 21 -27 0 -15 5 -31 10 -34 6 -4 10 5 10 19 0
35 25 34 39 -1 10 -25 10 -23 6 17 -5 46 6 82 19 61 5 -8 13 -8 26 -1 15 8 18
7 15 -2 -3 -7 -1 -18 3 -24 10 -15 102 -27 102 -13 0 6 -4 7 -10 4 -5 -3 -11
4 -11 17 -1 14 -3 17 -6 7 -3 -11 -12 -15 -28 -11 -27 5 -34 22 -10 22 17 0
19 13 6 57 -6 21 -5 35 2 42 13 13 10 13 -20 1z"/>
<path d="M2976 848 c3 -12 0 -18 -10 -18 -9 0 -16 -5 -16 -11 0 -6 9 -9 19 -6
17 4 21 -1 24 -37 3 -25 4 -16 4 25 0 49 -4 66 -14 66 -8 0 -11 -7 -7 -19z"/>
<path d="M29 817 c-4 -73 -2 -157 4 -157 4 0 7 18 7 40 0 29 4 40 15 40 11 0
15 -12 15 -50 l0 -50 -35 0 c-19 0 -35 -4 -35 -10 0 -14 54 -12 68 2 7 7 12
35 12 64 0 35 5 54 14 57 7 3 16 19 18 36 4 27 1 31 -18 31 -19 0 -23 -6 -26
-35 -2 -28 -6 -33 -18 -25 -12 8 -13 13 -2 30 15 25 15 27 -3 34 -8 3 -15 0
-16 -7z"/>
<path d="M730 805 c0 -16 6 -25 15 -25 8 0 15 -5 15 -11 0 -5 -4 -8 -9 -5 -5
3 -11 -1 -14 -8 -4 -10 -15 -13 -31 -10 -16 3 -26 0 -26 -7 0 -8 18 -10 61 -5
l61 7 -4 -35 c-2 -20 0 -36 4 -36 4 0 8 20 8 44 0 35 -4 45 -20 49 -15 4 -20
14 -20 36 0 24 -4 31 -20 31 -15 0 -20 -7 -20 -25z"/>
<path d="M2258 748 c-15 -5 -30 -18 -33 -29 -5 -13 -16 -19 -38 -19 -24 0 -28
-3 -17 -10 24 -16 48 -11 55 10 3 11 11 20 16 20 6 0 17 7 25 15 21 21 40 19
23 -2 -12 -14 -12 -16 1 -11 17 5 20 30 5 34 -5 1 -22 -2 -37 -8z"/>
<path d="M1307 733 c-2 -5 -2 -25 0 -45 5 -37 6 -38 47 -38 22 0 48 5 56 10
13 8 13 10 -1 10 -9 0 -19 7 -23 15 -6 17 -36 21 -36 5 0 -5 -7 -10 -15 -10
-18 0 -21 46 -2 53 7 3 6 6 -5 6 -9 1 -19 -2 -21 -6z"/>
<path d="M950 715 c0 -8 6 -15 13 -15 6 0 21 -3 33 -6 14 -4 21 -1 21 9 0 9
-7 12 -19 9 -10 -2 -18 1 -18 7 0 6 -7 11 -15 11 -8 0 -15 -7 -15 -15z"/>
<path d="M697 684 c-2 -13 0 -24 4 -24 5 0 9 8 9 18 0 14 8 19 31 20 17 0 33
3 36 6 3 3 -13 5 -35 4 -34 0 -41 -4 -45 -24z"/>
<path d="M2081 688 c-9 -19 -10 -31 -3 -44 10 -17 11 -17 17 -2 4 9 5 29 3 44
l-3 28 -14 -26z"/>
<path d="M540 690 c0 -5 18 -10 41 -10 22 0 38 4 35 8 -7 12 -76 14 -76 2z"/>
<path d="M2240 688 c0 -8 14 -13 35 -14 46 -1 46 21 0 24 -23 2 -35 -2 -35
-10z"/>
<path d="M1260 661 c0 -17 6 -31 16 -35 26 -10 188 -6 204 5 11 7 -14 9 -85 7
-83 -3 -100 -1 -100 12 -1 8 -7 14 -14 12 -8 -2 -11 3 -8 13 4 8 2 15 -3 15
-6 0 -10 -13 -10 -29z"/>
<path d="M1415 680 c28 -12 93 -12 100 0 4 6 -17 10 -57 9 -44 0 -57 -3 -43
-9z"/>
<path d="M1958 683 c-31 -8 -30 -73 1 -73 9 0 22 -5 29 -12 9 -9 12 -8 12 5 0
11 -8 17 -25 17 -30 0 -33 24 -8 52 9 10 14 17 12 17 -2 -1 -12 -3 -21 -6z"/>
<path d="M490 660 c0 -5 -22 -10 -50 -10 -43 0 -50 -3 -50 -19 0 -25 10 -31
35 -20 18 9 18 9 -2 5 -15 -3 -23 1 -23 10 0 17 41 19 58 2 9 -9 15 -8 27 8
15 19 19 34 10 34 -3 0 -5 -4 -5 -10z"/>
<path d="M544 658 c-3 -5 11 -8 30 -8 31 0 36 -3 36 -24 0 -21 -5 -25 -37 -28
-20 -2 -38 -8 -40 -14 -4 -12 53 -25 63 -15 5 6 10 7 35 10 8 1 8 5 -1 16 -7
8 -10 28 -8 44 4 29 3 29 -35 28 -21 -1 -41 -5 -43 -9z"/>
<path d="M648 653 c-3 -12 -3 -37 1 -55 l8 -33 4 37 c3 20 2 44 -1 54 -6 16
-7 16 -12 -3z"/>
<path d="M810 636 c0 -18 5 -23 18 -21 9 2 20 4 24 4 4 1 6 10 5 21 -2 31 -47
27 -47 -4z"/>
<path d="M1621 653 c20 -5 29 -33 29 -95 0 -27 5 -48 10 -48 11 0 13 56 4 113
-6 32 -10 37 -33 36 -15 -1 -19 -3 -10 -6z"/>
<path d="M1510 630 c-9 -18 -21 -20 -103 -20 -51 -1 -111 -5 -134 -9 -38 -7
-42 -6 -46 13 -2 12 -3 9 -2 -6 2 -34 -7 -35 -34 -7 -20 21 -20 21 -14 1 3
-12 12 -23 22 -25 11 -3 9 -5 -6 -6 -13 0 -23 5 -23 12 0 8 -15 13 -39 14 -32
2 -40 -2 -46 -20 -18 -57 -18 -57 34 -57 28 0 53 5 57 11 5 9 -6 10 -40 5 -38
-6 -46 -5 -46 8 0 11 10 16 33 17 72 1 107 7 123 20 16 12 17 12 12 -2 -5 -13
4 -16 68 -15 41 1 74 4 74 8 0 4 16 4 36 1 28 -5 39 -2 46 11 9 16 11 15 24
-9 8 -15 14 -41 14 -58 0 -17 3 -27 8 -23 11 12 9 90 -3 99 -7 6 -6 10 3 14 6
2 10 9 6 14 -3 5 0 9 6 9 6 0 8 5 5 10 -10 16 -23 12 -35 -10z"/>
<path d="M504 617 c-3 -13 -4 -41 -1 -63 3 -38 4 -37 5 9 1 26 7 47 12 47 6 0
10 7 10 15 0 24 -19 17 -26 -8z"/>
<path d="M2238 623 c6 -2 10 -9 6 -14 -3 -5 10 -9 28 -9 31 1 32 1 14 15 -11
8 -29 15 -40 14 -12 0 -15 -3 -8 -6z"/>
<path d="M1695 610 c-11 -5 -14 -9 -7 -9 7 -1 10 -5 7 -11 -4 -6 5 -7 23 -4
16 3 39 1 51 -6 21 -11 20 -12 -20 -33 -23 -12 -41 -26 -40 -30 0 -4 1 -20 1
-37 0 -44 16 -37 24 10 5 35 10 41 36 47 17 3 33 10 36 14 3 5 22 9 42 9 l37
1 -24 19 -23 20 38 1 c22 1 43 1 47 0 5 -1 6 3 2 9 -8 12 -201 12 -230 0z"/>
<path d="M2188 608 c-4 -10 -2 -20 3 -24 13 -7 2 -56 -14 -66 -6 -4 -24 -4
-39 -1 -21 4 -28 2 -28 -9 0 -11 12 -15 50 -14 44 1 50 4 50 22 0 12 3 36 7
54 4 23 3 31 -5 26 -6 -3 -12 2 -14 11 -3 17 -4 17 -10 1z"/>
<path d="M2038 593 c-38 -6 -36 -24 2 -21 17 1 30 8 30 15 0 7 -1 12 -2 12 -2
-1 -15 -4 -30 -6z"/>
<path d="M2950 591 c0 -7 -24 -11 -60 -11 -41 0 -60 -4 -60 -12 0 -8 -3 -9 -8
-3 -10 14 -32 17 -32 5 0 -22 70 -42 128 -37 31 4 63 6 70 7 10 0 9 4 -3 17
-9 9 -20 12 -23 7 -10 -13 -109 -18 -116 -5 -5 7 12 11 53 11 57 0 84 11 61
25 -5 3 -10 1 -10 -4z"/>
<path d="M890 565 c0 -26 -2 -28 -13 -14 -13 17 -57 32 -57 20 0 -4 -21 -9
-47 -11 -27 -1 -58 -3 -70 -4 -29 -1 -42 -16 -15 -16 12 0 22 -4 22 -10 0 -5
14 -10 31 -10 16 0 28 4 25 8 -8 14 42 12 53 -2 10 -12 3 -15 -38 -21 -28 -4
-54 -5 -58 -2 -4 3 -18 1 -30 -4 -17 -6 -23 -16 -22 -36 1 -17 3 -21 6 -10 2
9 9 15 14 12 5 -4 9 0 9 7 0 11 2 11 9 0 6 -10 18 -11 51 -3 48 11 64 6 56
-15 -3 -8 -2 -13 2 -13 26 4 32 -5 7 -11 l-30 -9 30 2 c39 3 44 31 15 86 -18
36 -19 42 -5 47 21 8 45 -14 44 -40 0 -20 -1 -20 -8 -2 -7 18 -8 18 -14 3 -6
-15 -1 -19 19 -16 14 2 22 -26 13 -48 -5 -12 -5 -23 0 -23 4 0 13 18 20 40 6
21 19 46 28 55 14 15 14 17 -5 21 -11 3 -24 15 -30 27 -10 21 -11 20 -12 -8z"/>
<path d="M1015 554 c0 -12 3 -21 6 -19 3 2 3 -9 1 -26 -4 -28 -3 -29 34 -29
22 -1 78 -2 126 -3 49 -1 88 1 88 4 0 9 43 20 50 13 3 -3 5 -47 5 -97 l0 -91
55 3 c30 1 55 3 55 4 1 1 -1 30 -3 65 -3 56 -6 62 -25 62 -18 0 -19 -2 -7 -10
8 -5 11 -10 5 -11 -5 0 -20 -2 -32 -5 -13 -2 -23 1 -23 6 0 6 8 10 18 11 14 0
14 2 -5 15 -27 19 -19 44 14 44 13 0 22 -4 19 -8 -6 -9 11 -39 18 -31 3 2 7
17 10 33 l5 28 -194 -4 -195 -4 0 29 c0 19 4 26 12 21 6 -4 8 -3 5 3 -4 6 -15
13 -24 15 -13 4 -18 -1 -18 -18z m401 -167 c4 -4 2 -7 -5 -7 -7 0 -9 -5 -4
-12 21 -35 -12 -57 -59 -39 -21 9 -21 10 10 10 17 1 32 5 32 10 0 4 -11 7 -24
6 -18 -2 -23 2 -23 19 0 19 5 23 33 22 18 -1 36 -5 40 -9z"/>
<path d="M2230 564 c0 -8 5 -12 10 -9 6 3 10 1 10 -5 0 -7 7 -9 17 -6 9 4 20
1 25 -6 5 -9 8 -5 8 11 0 18 -4 22 -20 18 -11 -3 -23 -1 -26 4 -9 14 -24 10
-24 -7z"/>
<path d="M1880 552 c-9 -3 -2 -10 20 -17 30 -10 36 -17 40 -51 l5 -39 108 3
c73 3 107 0 107 -7 0 -7 -27 -11 -75 -11 -41 0 -144 -1 -227 -1 l-153 0 -3 40
c-2 23 -7 41 -13 41 -6 0 -7 -43 -3 -116 l7 -116 -42 7 c-25 4 -41 3 -41 -3 0
-6 60 -10 158 -11 116 0 151 2 132 10 -14 6 -50 7 -83 4 -54 -7 -59 -5 -64 14
-3 12 -11 21 -18 21 -8 0 -14 16 -17 40 l-4 40 101 2 100 2 -95 6 c-91 6 -90
7 45 7 101 0 132 -2 113 -9 -29 -10 -35 -22 -18 -33 6 -3 10 0 10 7 0 9 3 9
10 -2 7 -11 10 -11 10 -2 0 7 5 10 10 7 6 -3 10 0 10 8 0 10 9 14 25 13 14 0
25 -4 25 -7 0 -10 88 7 105 21 14 12 14 15 1 28 -17 18 -174 34 -192 20 -7 -5
-11 2 -12 22 -1 44 -42 75 -82 62z"/>
<path d="M2310 532 c0 -10 -5 -23 -12 -30 -9 -9 -9 -12 0 -12 7 0 12 -9 12
-20 0 -24 15 -26 24 -3 4 10 1 20 -10 26 -12 7 -13 11 -4 17 16 10 85 -54 76
-69 -4 -6 -3 -11 2 -11 6 0 12 7 16 15 3 8 1 15 -5 15 -6 0 -7 5 -4 10 3 6 -2
10 -12 10 -17 1 -17 1 0 14 24 18 21 24 -10 20 -18 -2 -32 4 -41 17 -17 24
-32 25 -32 1z"/>
<path d="M2544 542 c4 -7 16 -12 26 -12 10 0 22 -5 26 -11 5 -9 -1 -10 -21 -5
l-28 7 7 -62 c3 -34 6 -77 6 -95 0 -26 6 -35 30 -48 17 -8 46 -24 65 -36 l35
-22 0 26 c0 14 -5 70 -11 125 l-12 100 -51 17 c-28 9 -57 19 -65 22 -9 3 -12
1 -7 -6z m86 -62 c14 -10 21 -22 16 -27 -5 -4 -11 -2 -13 5 -3 6 -16 12 -29
12 -23 0 -31 10 -17 23 10 10 16 8 43 -13z m-6 -36 c19 -18 20 -30 5 -39 -12
-8 -49 23 -49 42 0 18 25 17 44 -3z m36 -69 c0 -9 -10 -20 -22 -25 -23 -9 -23
-9 -2 -9 12 -1 24 -9 26 -19 4 -15 1 -18 -20 -14 -13 3 -27 13 -29 23 -3 11
-10 19 -15 19 -5 0 -6 -4 -3 -10 3 -5 2 -10 -3 -10 -5 0 -9 14 -10 30 -1 28 1
30 39 30 28 0 39 -4 39 -15z"/>
<path d="M2700 483 c0 -14 152 -18 248 -7 99 12 52 22 -98 21 -112 -2 -150 -5
-150 -14z"/>
<path d="M1651 453 c-1 -35 -5 -42 -23 -46 -20 -4 -20 -4 4 -6 34 -1 38 5 28
54 l-8 40 -1 -42z"/>
<path d="M1522 465 c1 -49 -1 -51 -39 -47 -26 2 -34 0 -24 -6 7 -5 36 -9 65
-9 28 -1 44 1 35 4 -9 2 -21 21 -27 41 -6 20 -10 28 -10 17z"/>
<path d="M6 444 c-4 -10 -2 -13 7 -7 6 4 30 10 52 14 l40 6 -46 2 c-34 1 -49
-3 -53 -15z"/>
<path d="M240 453 c-1 -5 -3 -43 -6 -85 l-6 -77 39 12 c30 10 34 13 16 15 -17
3 -23 10 -23 28 0 15 6 24 15 24 8 0 15 4 15 10 0 5 -7 7 -15 4 -21 -8 -20 34
2 58 15 17 15 18 -10 18 -15 0 -27 -3 -27 -7z"/>
<path d="M1762 454 c8 -7 149 -7 156 1 3 3 -32 5 -78 5 -46 0 -81 -3 -78 -6z"/>
<path d="M1205 440 c-14 -6 0 -9 45 -9 45 -1 60 2 50 9 -18 12 -68 12 -95 0z"/>
<path d="M2714 423 c2 -16 8 -63 11 -105 4 -43 11 -80 16 -84 5 -3 6 -11 2
-17 -13 -21 -10 -85 3 -80 9 3 12 29 9 94 -3 50 -7 94 -10 100 -4 5 4 9 17 9
20 1 21 2 6 10 -10 6 -14 18 -11 31 6 20 11 20 119 17 112 -3 114 -3 114 19 0
22 -1 22 -136 16 -100 -4 -135 -2 -130 6 4 6 2 11 -4 11 -7 0 -10 -11 -6 -27z"/>
<path d="M525 420 c-7 -11 11 -40 24 -40 3 0 6 11 6 25 0 25 -18 34 -30 15z"/>
<path d="M709 423 c-27 -4 -60 -54 -40 -61 5 -2 1 -12 -10 -23 -10 -10 -18
-27 -18 -36 1 -15 2 -15 6 -2 2 9 14 22 26 28 19 10 22 19 19 47 -4 29 -1 34
16 34 12 0 24 5 27 10 3 6 5 9 3 9 -2 -1 -15 -4 -29 -6z"/>
<path d="M785 400 l-50 -7 63 -1 c36 -1 62 2 62 8 0 6 -6 9 -12 8 -7 0 -35 -4
-63 -8z"/>
<path d="M344 388 c-6 -9 14 -11 59 -8 16 1 27 -4 27 -11 0 -10 3 -10 12 -1
15 15 32 16 23 2 -3 -5 -2 -10 4 -10 6 0 17 -12 25 -27 l15 -28 1 27 c0 15 -4
29 -10 33 -5 3 -7 12 -4 19 4 10 -12 13 -71 12 -42 -1 -79 -4 -81 -8z"/>
<path d="M1011 384 c-1 -13 -9 -24 -21 -27 -28 -7 -61 3 -53 17 3 6 3 8 -2 4
-4 -4 -14 -3 -22 4 -7 6 -16 8 -20 4 -3 -3 -1 -6 6 -6 8 0 10 -7 6 -20 -6 -18
-2 -20 50 -20 58 0 72 10 62 47 -4 15 -5 14 -6 -3z"/>
<path d="M1736 384 c7 -3 11 -13 9 -22 -1 -9 0 -11 2 -4 3 9 22 11 67 7 34 -4
74 -1 89 4 24 9 27 8 28 -12 0 -12 3 -16 6 -9 2 6 9 9 15 6 6 -4 6 1 -1 14
-10 18 -21 20 -118 20 -60 1 -103 -1 -97 -4z"/>
<path d="M366 363 c-18 -3 -25 -8 -18 -12 16 -10 73 -1 66 10 -3 5 -8 8 -12 8
-4 -1 -20 -4 -36 -6z"/>
<path d="M520 347 c0 -28 6 -32 28 -19 9 7 8 13 -8 27 -20 18 -20 18 -20 -8z"/>
<path d="M412 339 c-13 -5 -20 -13 -17 -19 3 -5 1 -10 -5 -10 -6 0 -8 -4 -5
-10 3 -6 -4 -10 -17 -10 -18 0 -20 2 -8 10 11 7 11 10 2 10 -7 0 -11 4 -7 9
11 19 -17 23 -30 5 -20 -26 -19 -74 0 -74 9 0 46 12 84 27 68 26 69 27 54 50
-17 25 -18 26 -51 12z"/>
<path d="M573 312 c-47 -23 -53 -30 -53 -58 0 -17 -3 -46 -6 -63 -5 -26 -9
-29 -21 -19 -11 9 -17 9 -24 -3 -8 -11 -9 -10 -7 6 2 11 10 20 17 20 8 0 16 7
18 15 4 13 3 13 -6 0 -6 -8 -11 -11 -11 -6 0 5 -6 3 -13 -3 -8 -6 -17 -8 -20
-4 -4 3 -8 1 -8 -5 -1 -7 -2 -16 -3 -22 0 -5 -5 -9 -11 -7 -5 1 -9 5 -8 8 1 3
-9 4 -23 1 -19 -3 -22 -7 -12 -13 11 -7 10 -11 -2 -19 -12 -7 -12 -12 -2 -22
10 -10 18 -9 42 6 17 9 48 19 70 21 l40 4 0 -44 c0 -46 4 -51 28 -36 11 7 11
9 0 14 -9 3 -13 17 -12 36 1 17 -2 31 -6 31 -16 0 -18 40 -2 50 10 5 12 10 5
10 -14 0 -18 50 -4 50 5 0 11 9 14 20 3 11 12 20 21 20 14 0 15 -4 6 -20 -8
-15 -7 -18 2 -14 7 3 20 20 29 39 9 19 16 35 15 34 0 0 -25 -12 -53 -27z"/>
<path d="M1950 318 c-1 -18 24 -58 39 -61 9 -3 5 -5 -9 -6 -15 0 -32 5 -40 12
-7 6 3 -10 23 -37 28 -36 37 -59 37 -87 0 -28 4 -39 15 -39 17 0 18 13 8 113
-4 51 -9 67 -19 63 -8 -3 -14 0 -14 6 0 6 -3 8 -7 4 -4 -3 -13 4 -20 16 -7 13
-12 20 -13 16z"/>
<path d="M165 300 c-3 -5 -3 -10 2 -11 4 0 -1 -4 -12 -9 -18 -8 -18 -9 -2 -9
38 -2 8 -27 -63 -53 -40 -15 -78 -32 -84 -38 -6 -6 21 1 59 15 94 36 105 39
105 27 0 -5 -17 -17 -37 -25 -21 -9 -32 -16 -25 -16 7 -1 22 4 34 10 25 13 35
5 18 -16 -8 -10 -9 -15 -1 -15 23 0 10 -28 -19 -40 -16 -7 -30 -16 -30 -21 0
-5 -9 -9 -20 -9 -24 0 -90 -31 -90 -42 0 -11 7 -10 39 6 15 8 37 13 48 10 11
-3 35 2 52 10 29 16 31 15 31 -1 0 -10 -6 -29 -13 -43 -12 -23 -12 -26 5 -27
18 -2 19 7 17 153 0 85 -2 154 -4 154 -2 0 -7 -4 -10 -10z"/>
<path d="M2564 292 c2 -9 11 -19 22 -23 17 -7 17 -8 2 -8 -10 -1 -18 -6 -18
-12 0 -6 8 -8 19 -4 28 9 71 -15 78 -44 3 -14 12 -32 20 -39 11 -11 13 -10 13
10 0 13 -3 32 -6 43 -6 25 -133 100 -130 77z"/>
<path d="M204 210 c0 -52 1 -74 3 -47 2 26 2 68 0 95 -2 26 -3 4 -3 -48z"/>
<path d="M490 283 c0 -15 -2 -16 -10 -3 -8 12 -12 12 -19 2 -7 -12 -24 -18
-61 -22 -11 -1 -12 -3 -2 -7 9 -4 10 -8 2 -18 -9 -11 -7 -12 9 -8 12 3 19 9
16 13 -6 10 44 32 57 24 6 -4 14 0 19 7 12 19 11 29 -1 29 -5 0 -10 -8 -10
-17z"/>
<path d="M1440 289 c-19 -5 -66 -8 -105 -6 -68 2 -70 1 -85 -28 -8 -17 -19
-33 -24 -36 -4 -4 -3 -10 4 -14 14 -9 15 -8 27 30 l10 30 87 -3 c47 -2 86 0
86 5 0 4 27 6 60 5 39 -3 60 0 60 7 0 6 -6 11 -14 11 -7 0 -26 2 -42 4 -16 3
-45 0 -64 -5z"/>
<path d="M1613 253 c-7 -3 -13 -10 -13 -15 0 -6 -15 -25 -32 -41 -31 -29 -31
-30 -5 -13 16 10 35 15 43 12 8 -3 14 0 14 6 0 7 5 6 15 -2 13 -11 14 -10 9 4
-4 11 -1 16 10 16 9 0 16 5 16 10 0 14 -7 13 -35 -6 -22 -14 -25 -15 -25 -1 0
8 6 17 13 20 6 2 10 7 7 9 -3 3 -11 3 -17 1z"/>
<path d="M245 240 c11 -5 30 -9 43 -9 16 -1 22 -7 21 -23 -1 -18 -2 -19 -6 -5
-3 13 -13 17 -38 15 l-32 -2 -2 -77 c-1 -44 3 -80 9 -84 6 -4 7 1 3 11 -6 15
-1 16 35 10 39 -6 42 -4 43 16 1 17 2 19 6 5 6 -22 17 -22 34 0 8 10 9 14 2
10 -6 -4 -14 -3 -18 3 -3 5 -1 10 4 10 6 0 11 7 11 16 0 10 -6 14 -15 11 -8
-4 -16 -3 -19 1 -7 13 13 52 28 52 7 0 16 10 18 23 4 21 1 22 -71 23 -48 1
-69 -1 -56 -6z m45 -45 c0 -8 5 -15 10 -15 23 0 8 -28 -17 -33 -39 -7 -50 3
-22 19 l24 13 -24 1 c-20 0 -21 2 -11 15 7 8 19 15 26 15 8 0 14 -7 14 -15z
m18 -67 c-7 -19 -38 -22 -38 -4 0 10 9 16 21 16 12 0 19 -5 17 -12z"/>
<path d="M1370 240 c-35 -7 -35 -7 -5 -9 17 -1 41 -4 55 -8 22 -6 24 -5 11 10
-7 9 -16 16 -20 16 -3 -1 -22 -5 -41 -9z"/>
<path d="M1743 184 c3 -3 27 -7 54 -9 38 -2 47 -5 45 -19 -2 -9 2 -16 8 -16 5
0 10 -7 10 -16 0 -8 4 -12 10 -9 6 4 6 12 1 23 -5 9 -12 25 -15 35 -4 13 -17
17 -62 17 -32 0 -55 -3 -51 -6z"/>
<path d="M1430 154 c-15 -8 -26 -9 -28 -4 -2 6 -8 10 -13 10 -6 0 -7 -4 -4
-10 4 -6 -5 -10 -21 -10 -27 0 -29 -10 -2 -14 7 -1 18 -5 25 -9 6 -4 14 -3 18
2 3 6 13 8 23 5 14 -5 15 -4 2 5 -13 9 -13 11 1 11 9 0 19 7 23 15 3 8 4 15 3
14 -1 -1 -13 -7 -27 -15z"/>
<path d="M1012 102 c-23 -26 -48 -59 -56 -73 -11 -22 -11 -25 6 -26 14 -1 18
5 18 27 0 22 11 38 45 67 42 35 56 54 38 52 -5 0 -27 -21 -51 -47z"/>
<path d="M1980 136 c0 -10 -14 -16 -42 -19 l-43 -4 48 -1 c41 -2 47 1 47 18 0
11 -2 20 -5 20 -3 0 -5 -6 -5 -14z"/>
<path d="M1505 132 c-5 -4 -11 -11 -12 -17 -1 -5 -4 -19 -8 -30 -4 -14 -2 -14
7 3 8 17 18 22 35 19 12 -2 20 0 17 4 -3 5 5 9 18 10 22 0 22 1 3 9 -28 12
-37 12 -30 0 3 -5 2 -10 -4 -10 -5 0 -11 4 -13 10 -1 5 -7 6 -13 2z"/>
<path d="M430 120 c-13 -8 -12 -10 5 -11 11 -1 25 -1 32 0 15 2 10 -32 -7 -37
-8 -3 -10 0 -5 8 6 10 -1 11 -36 6 -62 -11 -103 -24 -141 -46 -10 -6 -25 -10
-33 -10 -8 0 -15 -7 -15 -15 0 -8 9 -15 20 -15 11 0 20 4 20 9 0 10 54 31 81
31 10 0 19 -9 22 -22 l4 -23 2 23 c1 27 31 30 31 2 0 -11 7 -20 15 -20 9 0 15
9 15 25 0 18 7 26 24 31 15 3 23 12 22 22 -2 9 4 23 13 30 14 11 14 11 -3 5
-13 -4 -17 -3 -12 5 9 15 -32 16 -54 2z"/>
<path d="M1837 122 c-5 -7 -13 -9 -19 -6 -7 4 -8 2 -4 -5 4 -6 11 -9 16 -6 4
3 11 -2 14 -11 5 -14 1 -16 -29 -11 -29 5 -33 4 -22 -8 16 -16 64 -9 71 12 3
8 2 11 -3 8 -5 -3 -11 5 -13 17 -2 16 -5 19 -11 10z"/>
<path d="M1900 93 c0 -5 18 -9 40 -11 22 -1 40 2 40 8 0 5 -18 10 -40 10 -22
0 -40 -3 -40 -7z"/>
<path d="M1456 74 c-4 -11 -14 -15 -31 -12 -14 3 -25 1 -25 -5 0 -5 13 -7 28
-5 16 2 34 -2 41 -9 14 -16 129 -17 151 -2 12 8 9 9 -12 5 -16 -4 -28 -1 -31
7 -3 9 -9 9 -25 0 -16 -10 -21 -10 -25 0 -3 9 -8 9 -20 -1 -14 -12 -19 -12
-30 0 -7 7 -12 19 -9 26 6 18 -5 15 -12 -4z"/>
<path d="M2004 70 c3 -14 6 -36 6 -50 0 -20 2 -22 10 -10 10 16 3 59 -13 75
-6 7 -8 2 -3 -15z"/>
<path d="M1724 58 c-2 -3 19 -11 48 -16 l53 -10 -43 -1 c-24 0 -52 4 -63 9
-14 8 -19 7 -19 -1 0 -6 -7 -8 -16 -5 -8 3 -12 2 -9 -4 3 -6 42 -10 87 -10 70
0 79 2 68 15 -7 8 -21 15 -31 15 -11 0 -19 3 -19 8 0 9 -50 10 -56 0z"/>
</g>
</svg>
